<?xml version="1.0" encoding="utf-8"?>
<!-- Generator: Adobe Illustrator 24.3.0, SVG Export Plug-In . SVG Version: 6.00 Build 0)  -->
<svg version="1.1" id="Layer_1" xmlns="http://www.w3.org/2000/svg" xmlns:xlink="http://www.w3.org/1999/xlink" x="0px" y="0px"
	 width="512px" height="512px" viewBox="0 0 512 512" style="enable-background:new 0 0 512 512;" xml:space="preserve">
<style type="text/css">
	.st0{fill:#EFEFEF;}
	.st1{fill:#38B0E5;}
	.st2{opacity:0.1;fill:#172641;}
	.st3{fill:#F3F3F1;}
	.st4{fill:#D5DBE1;}
	.st5{fill:#A5AFC1;}
	.st6{fill:#172641;stroke:#172641;stroke-width:2;stroke-miterlimit:10;}
	.st7{fill:#172641;}
</style>
<g>
	<path class="st0" d="M15.1,217.7c52,83.5,44.4,167.8,69.5,208s100.8,110.4,285.9-4.9s141.5-245.8,114-290.1
		C355.5-76.5-76.9,69.8,15.1,217.7L15.1,217.7z"/>
	<path class="st1" d="M163.6,262.5l-3.3,12.1l-20.9,77.2l-4.3,15.8H96V246.7C142.8,246.7,163.6,262.5,163.6,262.5L163.6,262.5z"/>
	<path class="st2" d="M96,246.7v120.9h32V249.5C119.1,247.9,108.6,246.7,96,246.7z"/>
	<path class="st3" d="M416,339.2c0,0-103.1,56.9-145.8,56.9c-33.8,0-103.5-31.4-130.8-44.2l20.9-77.2l137,28
		c13.2,2.7,22.8,14.4,22.8,27.9v6.3c20.5-6.4,42-15.4,60.4-15.4C408.9,321.4,416,339.2,416,339.2L416,339.2z"/>
	<path class="st4" d="M169.4,351.2l18.9-69.8l-29.3-6l-19.6,72.4c25.6,12,91,41.5,122.7,41.5c1.6,0,3.5-0.2,5.3-0.4
		C233.9,380.7,189.5,360.6,169.4,351.2L169.4,351.2z"/>
	<g>
		<path class="st5" d="M56.8,66.8l10.1-10.1L87,76.9L76.9,87L56.8,66.8z"/>
		<path class="st5" d="M114.6,124.7l10.1-10.1l20.1,20.1l-10.1,10.1L114.6,124.7z"/>
		<path class="st5" d="M54.3,134.8l20.1-20.1l10.1,10.1l-20.1,20.1L54.3,134.8z"/>
		<path class="st5" d="M112.1,76.9l20.1-20.1l10.1,10.1L122.2,87L112.1,76.9z"/>
		<path class="st5" d="M440.9,448c-11.8,0-21.3-9.6-21.3-21.3c0-11.8,9.6-21.3,21.3-21.3c11.8,0,21.3,9.6,21.3,21.3
			C462.2,438.4,452.7,448,440.9,448z M440.9,419.6c-3.9,0-7.1,3.2-7.1,7.1s3.2,7.1,7.1,7.1c3.9,0,7.1-3.2,7.1-7.1
			S444.8,419.6,440.9,419.6z"/>
	</g>
	<g>
		<g>
			<g>
				<path class="st1" d="M327.7,145.3c-12.6,0-23.5,7.6-28.2,18.4c-4.7-10.8-15.6-18.4-28.2-18.4c-17,0-30.7,13.7-30.7,30.6
					c0,33.2,58.9,77,58.9,77s58.9-43.8,58.9-77C358.4,159.1,344.6,145.3,327.7,145.3L327.7,145.3z"/>
			</g>
			<g>
				<path class="st2" d="M263.6,176c0-12.8,7.9-23.8,19.2-28.3c-3.6-1.4-7.4-2.3-11.5-2.3c-17,0-30.7,13.7-30.7,30.6
					c0,33.2,58.9,77,58.9,77s4.8-3.6,11.5-9.3C293.9,229,263.6,199.8,263.6,176L263.6,176z"/>
			</g>
		</g>
		<path class="st6" d="M327.7,140c-10,0-19.7,4.2-26.5,11.5l-1.7,1.9l-1.7-1.8c-6.8-7.3-16.4-11.5-26.5-11.5
			c-19.9,0-36.1,16.1-36.1,36c0,34.9,54.8,76.6,61.1,81.3c1.9,1.4,4.5,1.4,6.4,0c6.3-4.6,61.1-46.3,61.1-81.3
			C363.8,156.1,347.6,140,327.7,140z M301,245.1l-1.5,1.2l-1.5-1.2c-8.7-6.9-52.1-42.8-52.1-69.1c0-13.9,11.4-25.3,25.4-25.3
			c10.1,0,19.3,6,23.3,15.2c0.9,2.1,3.1,2.8,4.9,2.8h0c1.8,0,4-0.7,4.9-2.8c4-9.2,13.2-15.2,23.3-15.2c14,0,25.4,11.3,25.4,25.3
			C353.1,202.2,309.7,238.1,301,245.1z"/>
	</g>
	<path class="st7" d="M422.7,336.5c-0.4-0.9-9.2-22.3-42.2-22.3c-15.4,0-32.7,5.8-47.9,10.8l-5.6,1.7l-0.3-1.7
		c-0.1-0.6-0.2-1.2-0.3-1.8c-0.1-0.6-0.3-1.3-0.4-1.9c-3.5-13-14.2-23.1-27.3-25.8l-129.5-26.5l0.4-1.5l1-3.8
		c0.4-2.6-0.6-5.3-2.7-6.9c-0.2-0.2-23.2-17.3-71.9-17.3c-4,0-7.2,3.2-7.2,7.2v120.9c0,4,3.2,7.2,7.2,7.2h39.1
		c3.2,0,6.1-2.2,6.9-5.3l2.1-7.6l5.3,2.4c39.1,17.7,91.7,38.9,120.8,38.9c43.6,0,144.9-55.4,149.2-57.8
		C422.6,343.7,424,339.8,422.7,336.5L422.7,336.5z M129.6,360.4h-26.5V253.9l3.7,0.2c22.4,1.3,37.2,6.4,45.7,10.4l2.6,1.3
		L129.6,360.4z M400.5,339.3c-15.8,8.3-96.3,49.5-130.3,49.5c-21.2,0-63-13.8-117.5-38.8l-4.8-2.2l17.6-64.9l5.3,1.1l125,25.6
		c8.2,1.7,14.6,8,16.5,16.2c0.2,0.7,0.3,1.4,0.4,2.1c0.1,0.7,0.1,1.3,0.1,2l0,1.1l-5.1,1.6c-7.8,2-14.3,2.9-19.8,2.9
		c-22.1,0-51.4-9.1-61.8-12.6l-4.9,13.5c11,3.7,42.1,13.5,66.7,13.5c15.4,0,32.2-5.6,48.5-11l0.1,0c15.2-5,30.8-10.3,43.9-10.3
		c8,0,14.8,1.6,20.2,4.7l5.5,3.2L400.5,339.3z"/>
</g>
</svg>
