<svg width="29" height="29" viewBox="0 0 29 29" fill="none" xmlns="http://www.w3.org/2000/svg">
<g clip-path="url(#clip0_43_348)">
<path d="M18.071 28.972C18.024 28.992 17.976 29.01 17.929 29.028L18.071 28.972Z" fill="black"/>
<path d="M29 14.5C29 6.493 22.507 0 14.5 0C6.493 0 0 6.493 0 14.5C0 22.507 6.493 29 14.5 29L14.755 28.997V17.709H11.64V14.079H14.755V11.407C14.755 8.308 16.646 6.622 19.41 6.622C20.734 6.622 21.871 6.721 22.203 6.765V10.003H20.297C18.794 10.003 18.502 10.718 18.502 11.766V14.079H22.098L21.629 17.709H18.502V28.439C24.563 26.703 29 21.12 29 14.5Z" fill="#848484"/>
</g>
<defs>
<clipPath id="clip0_43_348">
<rect width="29" height="29" fill="white"/>
</clipPath>
</defs>
</svg>
