<svg width="30" height="30" viewBox="0 0 30 30" fill="none" xmlns="http://www.w3.org/2000/svg">
<g clip-path="url(#clip0_43_353)">
<path d="M18.36 8.52012H11.76C10.8 8.52012 9.96001 8.82012 9.42001 9.36012C8.88001 9.90012 8.58001 10.7401 8.58001 11.7001V18.3001C8.58001 19.2601 8.88001 20.1001 9.48001 20.7001C10.08 21.2401 10.86 21.5401 11.82 21.5401H18.36C19.32 21.5401 20.16 21.2401 20.7 20.7001C21.3 20.1601 21.6 19.3201 21.6 18.3601V11.7601C21.6 10.8001 21.3 10.0201 20.76 9.42012C20.16 8.82012 19.38 8.52012 18.36 8.52012ZM15.06 19.0801C12.78 19.0801 10.98 17.2201 10.98 15.0001C10.98 12.7201 12.84 10.9201 15.06 10.9201C17.28 10.9201 19.2 12.7201 19.2 15.0001C19.2 17.2801 17.34 19.0801 15.06 19.0801ZM15.18 0.120117C23.34 0.120117 30 6.72012 29.94 14.8801C29.94 23.0401 23.34 29.6401 15.18 29.6401C7.02001 29.6401 0.420013 23.0401 0.420013 14.8801C0.420013 6.72012 7.02001 0.120117 15.18 0.120117ZM18.42 7.08012H11.82C9.07801 7.08012 7.24401 8.89512 7.14401 11.5321L7.14001 11.7601V18.3601C7.14001 19.7401 7.56001 20.9401 8.46001 21.7801C9.24401 22.5641 10.342 22.9821 11.558 23.0341L11.82 23.0401H18.36C19.68 23.0401 20.88 22.6201 21.72 21.7801C22.504 20.9961 22.974 19.8981 23.034 18.6341L23.04 18.3601V11.7601C23.04 10.3801 22.62 9.24012 21.78 8.40012C20.94 7.56012 19.8 7.08012 18.42 7.08012ZM15.06 12.3601C15.7602 12.3601 16.4317 12.6383 16.9268 13.1334C17.4219 13.6285 17.7 14.2999 17.7 15.0001C17.7 15.7003 17.4219 16.3718 16.9268 16.8669C16.4317 17.362 15.7602 17.6401 15.06 17.6401C14.3598 17.6401 13.6883 17.362 13.1933 16.8669C12.6982 16.3718 12.42 15.7003 12.42 15.0001C12.42 14.2999 12.6982 13.6285 13.1933 13.1334C13.6883 12.6383 14.3598 12.3601 15.06 12.3601ZM19.32 9.78012C19.86 9.78012 20.28 10.2001 20.28 10.7401C20.28 11.2801 19.86 11.7001 19.32 11.7001C18.78 11.7001 18.36 11.2801 18.36 10.7401C18.36 10.2001 18.78 9.78012 19.32 9.78012Z" fill="#848484"/>
</g>
<defs>
<clipPath id="clip0_43_353">
<rect width="30" height="30" fill="white"/>
</clipPath>
</defs>
</svg>
