<?xml version="1.0" encoding="utf-8"?>
<!-- Generator: Adobe Illustrator 24.3.0, SVG Export Plug-In . SVG Version: 6.00 Build 0)  -->
<svg version="1.1" id="Layer_1" xmlns="http://www.w3.org/2000/svg" xmlns:xlink="http://www.w3.org/1999/xlink" x="0px" y="0px"
	 width="512px" height="512px" viewBox="0 0 512 512" style="enable-background:new 0 0 512 512;" xml:space="preserve">
<style type="text/css">
	.st0{fill:#EFEFEF;}
	.st1{fill:#A5AFC1;}
	.st2{fill:#F3F3F1;}
	.st3{fill:#38B0E5;}
	.st4{opacity:0.1;fill:#172641;}
	.st5{fill:#D5DBE1;}
	.st6{fill:#172641;}
</style>
<g>
	<path class="st0" d="M496.4,289.5c-53.8-82.4-48.1-166.8-74-206.5S319.2-25.1,136.6,94.1S0.5,343,29,386.7
		C162.6,591.1,591.7,435.4,496.4,289.5z"/>
	<g>
		<path class="st1" d="M418.7,100.9c-11.8,0-21.3-9.6-21.3-21.3s9.6-21.3,21.3-21.3S440,67.8,440,79.6S430.5,100.9,418.7,100.9z
			 M418.7,72.5c-3.9,0-7.1,3.2-7.1,7.1c0,3.9,3.2,7.1,7.1,7.1s7.1-3.2,7.1-7.1C425.8,75.7,422.6,72.5,418.7,72.5z"/>
		<path class="st1" d="M29.6,298.3l10.1-10.1l20.1,20.1l-10.1,10.1L29.6,298.3z"/>
		<path class="st1" d="M87.5,356.1l10.1-10.1l20.1,20.1l-10.1,10.1L87.5,356.1z"/>
		<path class="st1" d="M27.1,366.2l20.1-20.1l10.1,10.1l-20.1,20.1L27.1,366.2z"/>
	</g>
	<circle class="st2" cx="156.4" cy="220.4" r="24.9"/>
	<path class="st3" d="M96,314.4v-7.1c0-15.7,12.7-28.4,28.4-28.4h64c15.7,0,28.4,12.7,28.4,28.4v7.1H96z"/>
	<circle class="st2" cx="355.6" cy="220.4" r="24.9"/>
	<path class="st3" d="M295.1,314.4v-7.1c0-15.7,12.7-28.4,28.4-28.4h64c15.7,0,28.4,12.7,28.4,28.4v7.1H295.1z"/>
	<path class="st4" d="M152.9,278.9h-28.4c-15.7,0-28.4,12.7-28.4,28.4v7.1h28.4v-7.1C124.4,291.6,137.2,278.9,152.9,278.9z"/>
	<path class="st4" d="M352,278.9h-28.4c-15.7,0-28.4,12.7-28.4,28.4v7.1h28.4v-7.1C323.6,291.6,336.3,278.9,352,278.9z"/>
	<path class="st5" d="M160,220.4c0-8.4,4.2-15.9,10.7-20.4c-4-2.8-8.9-4.5-14.2-4.5c-13.7,0-24.9,11.2-24.9,24.9
		s11.2,24.9,24.9,24.9c5.3,0,10.2-1.7,14.2-4.5C164.2,236.3,160,228.9,160,220.4L160,220.4z"/>
	<path class="st5" d="M359.1,220.4c0-8.4,4.2-15.9,10.7-20.4c-4-2.8-8.9-4.5-14.2-4.5c-13.7,0-24.9,11.2-24.9,24.9
		s11.2,24.9,24.9,24.9c5.3,0,10.2-1.7,14.2-4.5C363.3,236.3,359.1,228.9,359.1,220.4L359.1,220.4z"/>
	<path class="st6" d="M152.9,154.4h44.2v-17.3h-12.5l8-3.8c19.8-9.4,41.7-14.4,63.4-14.4c35.4,0,69.7,12.7,96.7,35.8l11.4-13
		c-30.2-25.9-68.6-40.1-108.2-40.1c-32.5,0-64.1,9.6-91.3,27.7l-3.1,2.1v-29.8h-17.3v44.2C144.2,150.6,148.1,154.4,152.9,154.4z"/>
	<path class="st6" d="M359.1,357.6h-44.2v17.3h14.2l-8,3.8c-19.8,9.4-41.7,14.4-63.4,14.4c-35.4,0-69.7-12.7-96.7-35.8l-11.4,13
		c30.2,25.9,68.5,40.1,108.2,40.1c31.8,0,62.8-9.2,89.7-26.6l3.1-2v28.6h17.3v-44.2C367.8,361.4,363.9,357.6,359.1,357.6z"/>
	<path class="st6" d="M156.4,254c18.5,0,33.6-15.1,33.6-33.6s-15.1-33.6-33.6-33.6c-18.5,0-33.6,15.1-33.6,33.6S137.9,254,156.4,254
		z M156.4,204.2c8.9,0,16.2,7.3,16.2,16.2c0,8.9-7.3,16.2-16.2,16.2c-8.9,0-16.2-7.3-16.2-16.2C140.2,211.5,147.5,204.2,156.4,204.2
		z"/>
	<path class="st6" d="M208.2,309.3v5.1h17.3v-5.1c0-20.5-16.6-37.1-37.1-37.1h-64c-20.5,0-37.1,16.6-37.1,37.1v5.1h17.3v-5.1
		c0-10.9,8.9-19.8,19.8-19.8h64C199.4,289.6,208.2,298.4,208.2,309.3z"/>
	<path class="st6" d="M322,220.4c0,18.5,15.1,33.6,33.6,33.6s33.6-15.1,33.6-33.6s-15.1-33.6-33.6-33.6S322,201.9,322,220.4z
		 M371.8,220.4c0,8.9-7.3,16.2-16.2,16.2c-8.9,0-16.2-7.3-16.2-16.2c0-8.9,7.3-16.2,16.2-16.2C364.5,204.2,371.8,211.5,371.8,220.4z
		"/>
	<path class="st6" d="M387.6,272.2h-64c-20.5,0-37.1,16.6-37.1,37.1v5.1h17.3v-5.1c0-10.9,8.9-19.8,19.8-19.8h64
		c10.9,0,19.8,8.9,19.8,19.8v5.1h17.3v-5.1C424.7,288.9,408,272.2,387.6,272.2z"/>
</g>
</svg>
