<svg id="Capa_1" fill="grey" data-name="Capa 1" xmlns="http://www.w3.org/2000/svg" viewBox="0 0 215.26 202.2"><defs><style>.cls-1{fill:#3d3935;}.cls-2{fill:#3c3834;}.cls-3{fill:#3e3a36;}.cls-4{fill:#3a3632;}.cls-5{fill:#3f3b37;}</style></defs><title>nf1</title><path class="cls-1" d="M-119,383.29c-6.11,1.59-9.95-1-9.93-7.15,0-4,.73-7.92,1.05-11.89,0.11-1.31.52-2.95-1.12-3.57-1.45-.55-2.59.38-3.56,1.45-4.26,4.7-5.36,10.74-6.88,16.55-0.48,1.85-1.16,3.76-.88,5.81,0.24,1.73-.79,2.38-2.5,2.42s-2-1-2-2.39c0-3.32,0-6.65,0-10.49-8.62,6.58-17.65,4.6-26.69,2.79-8.68-1.74-17.09-4.61-26.06-5.14-7.35-.44-14,0.92-20.11,4.94-1.7,1.13-3.14,1.86-4.38-.14s-0.14-3.27,1.59-4.61c7.41-5.77,16-6.12,24.58-4.93,9.75,1.36,19.09,4.79,28.71,6.8,6.09,1.27,12.59,2.1,18.56-1.32,3-1.72,5-4,4.58-7.75-0.16-1.48,0-3,0-4.5-0.13-2.67,1.19-4.11,3.75-4,2.77,0.15,3,2.11,2.48,4.35a18,18,0,0,0-.16,2.36c2.07-2.47,3.84-4.57,6.65-5.52,4.76-1.61,8.89,1.09,9,6.09a84.24,84.24,0,0,1-.66,12.32c-0.18,1.53-1.19,4.24,1.88,4.3a4.5,4.5,0,0,0,4.68-4.37c0.37-8.22,1.83-16.27,3.11-24.35,0.29-1.84.5-3.7,1-5.49s1.69-3.14,3.75-3c2.36,0.16,2.23,2,2,3.63-0.71,5.13-1.59,10.24-2.3,15.38-0.82,5.91-1.51,11.83-2.3,17.75a4.4,4.4,0,0,1-.62,1.25C-114.74,379.92-117.3,380.27-119,383.29Z" transform="translate(222.52 -278.73)"/><path class="cls-2" d="M-75.69,377.87c-4.41.1-7.43-2.63-10.68-5.47-1.54,2.77-2.11,5.9-4.36,8-2.59,2.46-5.54,2.18-8.75.71l2.05,15.12c0.71,2.07-.12,4.27.54,6.35v1.54c-0.77,2.43.31,5-.64,7.42-0.4,4.75-1.29,9.36-3.73,13.55-3.43,5.9-9.37,6-12.71.06a23.13,23.13,0,0,1-3.11-11.85c-0.66-1.24,0-2.68-.55-3.93v-6c1.46-.86,2.36-3.47,4.73-1.53,0.17,4.26-.32,8.52.26,12.77a20.67,20.67,0,0,0,1.91,8.87c1.63,3.26,4.33,3.52,6.46.48,2.84-4,3.39-8.93,3.62-13.55,0.5-9.87.41-19.77-2.74-29.36a24,24,0,0,0-3.13-6.64c-0.63-.88-0.93-1.74,0-2.67,1.2-1.23,1.74,0,2.38.63,1.37,1.28,2.65,2.65,4,4,3.85,3.72,6.91,3.2,9.19-1.68a34.92,34.92,0,0,0,1.51-4.89c1-3.53,2-3.76,4.58-1.09a21.87,21.87,0,0,0,6.33,5c5.11,2.36,10.26,1.15,15.22.13,9.83-2,19.45-5.16,29.32-6.92,8.57-1.53,17-.2,24.46,5,1.44,1,3.15,2.2,1.79,4.13-1.22,1.75-3.15,1.9-5,.66-3.68-2.41-7.46-4.58-12-5a39.33,39.33,0,0,0-9.71,0c-9,.66-17.45,4.15-26.29,5.62-3.46.58-6.92,1.54-10.5,1.13C-72.68,377.81-74.32,378.78-75.69,377.87Z" transform="translate(222.52 -278.73)"/><path class="cls-3" d="M-111.92,480.82c-34.29-.18-60.06-12.87-80.36-36.4a93.73,93.73,0,0,1-22.25-50.85,23.34,23.34,0,0,1-.53-2.55c0-1-.93-2.59.59-2.81s1.45,1.46,1.41,2.51c-0.17,4.77,1.18,9.32,2.39,13.78,7.33,27,23,47.72,47.32,61.77a89.8,89.8,0,0,0,34.62,11.86c21.76,2.48,42.72-.66,62.22-11.9C-48.67,455.94-35,442-25.92,423.64a88.25,88.25,0,0,0,9.5-33.85,7.4,7.4,0,0,1,.17-1.49c0.17-.64,0-1.75.93-1.68,1.13,0.08,1.09,1.12,1,2a86.54,86.54,0,0,1-3.08,17.47C-29.22,445.36-55.44,469.4-95,479-101.42,480.49-108.06,481.24-111.92,480.82Z" transform="translate(222.52 -278.73)"/><path class="cls-3" d="M-213.06,357.56a68.29,68.29,0,0,1,5.44-17.33c11.61-26.18,30.6-45,57.45-55.07a97,97,0,0,1,51.95-4.88,103.51,103.51,0,0,1,32.6,11.28A97.37,97.37,0,0,1-33.75,320a109,109,0,0,1,16,32.88c0.21,0.71.71,1.51,0.41,2.09s1.69,1.57-.23,1.87c-1.06.16-1-.57-1.25-1.34-0.86-3-1.77-6-2.84-9-9.77-27.25-28.2-46.31-54.45-58-12.38-5.51-25.47-7.7-39-7.74-22.74-.07-43.11,7.12-60.95,20.91a96.08,96.08,0,0,0-31.66,43.59c-1.23,3.34-2.14,6.8-3.08,10.24A2.54,2.54,0,0,1-213.06,357.56Z" transform="translate(222.52 -278.73)"/><path class="cls-2" d="M-119,383.29c-1.7-2.67,1.39-2.93,2.25-3.37,1.49-.75,3.83-1.79,5,1,0.33,4.79-.66,9.5-0.89,14.26-0.55,1.63-.06,3.31-0.3,5-2.4-.08-2.58-0.25-4.68-4.22l0-7.54c0.26-1.77.6-3.54-.12-5.28Z" transform="translate(222.52 -278.73)"/><path class="cls-4" d="M-117.62,395.9c2,1,2.59,3.22,4.23,4.5q0.41,0.25.26,0.48a0.38,0.38,0,0,1-.28.23c-1.34.88-2.22,2.61-4.22,2.27V395.9Z" transform="translate(222.52 -278.73)"/><path class="cls-5" d="M-113.4,401.12a1.29,1.29,0,0,0,0-.72c0.49-1.71-.49-3.64.75-5.24v19.46C-114.09,410.19-112.72,405.6-113.4,401.12Z" transform="translate(222.52 -278.73)"/><path class="cls-1" d="M-34.48,371.76a16.08,16.08,0,0,1,9.71,0h-9.71Z" transform="translate(222.52 -278.73)"/><path class="cls-3" d="M-97.52,411.58c0.31-2.47-.62-5,0.64-7.42C-96.84,406.66-96.42,409.18-97.52,411.58Z" transform="translate(222.52 -278.73)"/><path class="cls-5" d="M-117.73,383.08c1,1.82,1,2.62.12,5.28Z" transform="translate(222.52 -278.73)"/><path class="cls-3" d="M-96.89,402.62c-1.24-2-.4-4.23-0.54-6.35C-96.54,398.33-96.84,400.48-96.89,402.62Z" transform="translate(222.52 -278.73)"/><path class="cls-1" d="M-75.69,377.87c1.47,0.23,3.07-.5,4.41.63C-72.78,378.53-74.32,378.82-75.69,377.87Z" transform="translate(222.52 -278.73)"/><path class="cls-3" d="M-117.61,409.41c1.05,1.19.48,2.6,0.55,3.93A6.58,6.58,0,0,1-117.61,409.41Z" transform="translate(222.52 -278.73)"/></svg>