<svg id="Capa_1" data-name="Capa 1" xmlns="http://www.w3.org/2000/svg" viewBox="0 0 215.33 202.08"><defs><style>.cls-1{fill:#fff;}</style></defs><title>nf3</title><path class="cls-1" d="M-122.53,378.9c-6.29,1.64-9.73-.8-10-7.09-0.17-3.9.77-7.7,1.08-11.55,0.11-1.44.68-3.24-1.1-3.93-1.59-.61-2.88.58-3.84,1.77-4.07,5-5.31,11.18-6.66,17.27a32.16,32.16,0,0,0-.66,4.82c-0.11,1.69-.91,2.54-2.57,2.53s-2.31-1.12-2.3-2.72c0-3.12,0-6.24,0-9.77-10.94,7.26-22.09,3.12-33.16.68-8.65-1.91-17.2-4.25-26.21-3.49A24,24,0,0,0-220,372c-1.8,1.28-3.76,2.78-5.45.28s0.3-4,2.28-5.36c8.9-6.06,18.6-5.56,28.49-3.59,10.27,2,20.16,5.77,30.65,6.85a23.74,23.74,0,0,0,8.52-.73c5.08-1.33,7.17-3.93,7.68-9.14a42.6,42.6,0,0,0,.29-4.86c0-2.62,1.43-3.64,3.74-3.6,2.58,0.05,3,1.74,2.56,3.92-0.15.73-.16,1.48-0.28,2.72a41.73,41.73,0,0,1,3.67-3.85,7.9,7.9,0,0,1,8.39-1.44c3.07,1.23,3.72,3.78,3.93,6.63,0.3,4-.75,7.95-1,11.93-0.08,1.48-.78,3.61,1.51,4a3.84,3.84,0,0,0,4.43-3.22c0.75-3.4.94-6.92,1.46-10.37,1-6.66,2-13.32,3.1-20,0.38-2.4,1.57-4.09,4.25-3.53s2.08,2.66,1.7,4.52c-2.32,11.37-3.35,22.94-5.13,34.39C-119.42,375.51-119.67,375.55-122.53,378.9Z" transform="translate(226.14 -274.31)"/><path class="cls-1" d="M-38,367.37c-9,.66-17.45,4.15-26.29,5.62-3.46.58-6.92,1.54-10.5,1.13-1.4-.7-3,0.28-4.42-0.63-4.41.1-7.43-2.63-10.68-5.47-1.54,2.77-2.13,5.88-4.35,8-2.59,2.52-5.57,2-8.74.83l2,15c0.71,2.07-.12,4.28.54,6.35v1.54c-0.77,2.43.31,5-.64,7.42-0.64,4.79-1,9.68-3.83,13.85-4.06,5.91-9.52,5.59-12.91-.79a22.25,22.25,0,0,1-2.81-11.3c-0.66-1.24,0-2.68-.55-3.93l-0.16-6c1.55-.78,2.49-3.4,4.88-1.6,0.18,4.28-.32,8.57.27,12.84,0.63,3.18.36,6.54,2.36,9.43,1.56,2.27,3.67,2.56,5.51.49,2.52-2.84,2.54-6.57,3.62-9.92,0.63-1.25-.1-2.69.57-3.94V391.78c-0.6-1.28,0-2.72-.52-4-1.34-6.16-1.69-12.63-5.58-18-1-1.39-.19-2.31.93-3.09,2.56-.88,3.3,1.37,4.6,2.67,2.11,2.12,3.94,4.72,7.52,4.22,2.5-1.68,3-4.45,3.74-7,1.52-5.12,2-5.2,5.67-1.46a17.11,17.11,0,0,0,5.92,4.31c5.48,2.12,10.95.85,16.3-.23,10.86-2.19,21.36-6.05,32.5-7.06,7.39-.67,13.88,1.71,20,5.49,1.5,0.92,3.14,2.21,1.75,4.13-1.24,1.71-3.15,1.87-5,.63-3.67-2.41-7.45-4.58-12-5A39.27,39.27,0,0,0-38,367.37Z" transform="translate(226.14 -274.31)"/><path class="cls-1" d="M-196.94,439.24c-7.58-10.3-14-21.2-17.68-33.55a109.67,109.67,0,0,1-4-19c-0.11-1-.88-2.66.54-2.86,1.87-.25,1.36,1.69,1.49,2.79,3,25.2,13.84,46.55,32.76,63.26a95.8,95.8,0,0,0,61,24.44c29.6,1.2,54.89-9.1,75.66-29.94C-32.93,430-24.3,412.48-20.79,392.48A29.85,29.85,0,0,0-20,387c0-1.68-.27-3.51,1-5,2,1.12,1.17,2.92,1,4.37-3.24,25.84-14.22,47.77-33.92,64.91-15.17,13.21-32.7,21.7-52.87,24.2-29,3.58-54.87-3.65-77.6-22a7.39,7.39,0,0,0-1-.56c-4.38-1.87-6.74-6-10.14-9C-194.93,442.62-196.65,441.42-196.94,439.24Z" transform="translate(226.14 -274.31)"/><path class="cls-1" d="M-216.66,353.28a67.62,67.62,0,0,1,5.8-18.28c15.4-33.23,41-53.77,77.26-59.38,29-4.49,55.51,2.59,78.61,21.29,17,13.73,27.5,31.56,34,52.09a1.79,1.79,0,0,1,.19,1.06c-0.41.83,1.28,1.87-.08,2.37-1.6.58-1.23-1-1.51-1.8a164,164,0,0,0-6.23-16.9C-39.21,310.81-56.06,294-79.16,284.54c-34.12-14-67-10.58-97.35,10.78-19,13.41-31.22,32-37.48,54.4C-214.59,351.89-214.58,351.89-216.66,353.28Z" transform="translate(226.14 -274.31)"/><path class="cls-1" d="M-122.53,378.9c0.12-1.67,1.3-3.58,2.67-3.72,1.94-.19,4-0.09,4.68,2.34l-1,13.25c-0.56,1.64,0,3.35-.32,5-3.43.62-3.27-2.82-4.86-4.29l0.21-7.52c0.25-1.76.62-3.51-.14-5.24Z" transform="translate(226.14 -274.31)"/><path class="cls-1" d="M-167.55,304.92" transform="translate(226.14 -274.31)"/><path class="cls-1" d="M-121.39,391.49c2.17,0.83,2.73,3.23,4.43,4.52q0.41,0.24.27,0.48a0.38,0.38,0,0,1-.28.24c-1.36.94-2.32,2.65-4.37,2.27A23.13,23.13,0,0,1-121.39,391.49Z" transform="translate(226.14 -274.31)"/><path class="cls-1" d="M-117,396.73a1.29,1.29,0,0,0,0-.72c0.49-1.71-.48-3.63.75-5.24q0,9.73,0,19.46C-117.67,405.8-116.29,401.21-117,396.73Z" transform="translate(226.14 -274.31)"/><path class="cls-1" d="M-38,367.37a16.1,16.1,0,0,1,9.7,0H-38Z" transform="translate(226.14 -274.31)"/><path class="cls-1" d="M-101.09,407.19c0.31-2.47-.63-5,0.64-7.42C-100.41,402.27-100,404.8-101.09,407.19Z" transform="translate(226.14 -274.31)"/><path class="cls-1" d="M-100.45,398.23c-1.24-2-.39-4.23-0.54-6.35C-100.11,393.94-100.4,396.09-100.45,398.23Z" transform="translate(226.14 -274.31)"/><path class="cls-1" d="M-121.31,378.73c1.35,1.71,1,3.47.14,5.24Z" transform="translate(226.14 -274.31)"/><path class="cls-1" d="M-79.26,373.48c1.47,0.23,3.08-.5,4.42.63C-76.35,374.14-77.89,374.43-79.26,373.48Z" transform="translate(226.14 -274.31)"/><path class="cls-1" d="M-104.67,387.77c1,1.22.47,2.65,0.52,4A7.71,7.71,0,0,1-104.67,387.77Z" transform="translate(226.14 -274.31)"/><path class="cls-1" d="M-121.18,405c1.05,1.19.48,2.6,0.55,3.93A6.6,6.6,0,0,1-121.18,405Z" transform="translate(226.14 -274.31)"/><path class="cls-1" d="M-104.13,406.29c-0.07,1.33.52,2.75-.57,3.94A7.42,7.42,0,0,1-104.13,406.29Z" transform="translate(226.14 -274.31)"/></svg>