<svg id="Capa_1" data-name="Capa 1" xmlns="http://www.w3.org/2000/svg" viewBox="0 0 203.33 203.53"><defs><style>.cls-1{fill:#fff;}</style></defs><title>nf4</title><path class="cls-1" d="M-221.78,417.38c-7.07-9.57-13.18-19.65-17-31a92,92,0,0,1-4.9-21.84c-0.09-1-1.26-2.94.48-3.13,1.89-.21,1.36,2,1.48,3.15a90.05,90.05,0,0,0,7.86,28.73c14.56,31.35,38.89,51,72.71,57.64,29.6,5.83,56.94-.88,80.63-19.71,21.32-16.95,34-39.15,37.25-66.44a23.17,23.17,0,0,1,.46-3c0.18-.72-0.43-2.1,1-2s0.95,1.42.89,2.39a81.35,81.35,0,0,1-2,13.31,101.61,101.61,0,0,1-91.66,78.79c-27.09,1.86-51.29-5.51-72.45-22.63a13.56,13.56,0,0,0-1.24-.8" transform="translate(244.16 -251.08)"/><path class="cls-1" d="M-55.6,299.24c4.95,8.82,9.3,17.9,11.79,27.76,0.26,1,1.5,2.71,0,3.19s-1.62-1.46-1.93-2.58c-6.07-22-18-40.22-36.19-54-20.3-15.46-43.38-21.86-68.82-19.9a96.38,96.38,0,0,0-55.91,22.69,99.94,99.94,0,0,0-32.43,50.58c-0.07.24-.06,0.5-0.15,0.73-0.4,1.1-.38,3.09-2,2.57s-0.27-2.19,0-3.2c9.25-32.42,29.35-55.49,60.47-68.38,40.14-16.63,86.78-5.23,115.26,27.56,0.48,0.56,1.06,1,1.59,1.55" transform="translate(244.16 -251.08)"/><path class="cls-1" d="M-146.34,353.51c-5.73,1.49-9.33-.94-9.31-6.7,0-3.75.68-7.43,1-11.15,0.1-1.23.49-2.77-1.05-3.35-1.36-.52-2.43.36-3.34,1.36-4,4.41-5,10.07-6.45,15.52a14,14,0,0,0-.83,5.45c0.23,1.62-.74,2.23-2.34,2.27s-1.88-.94-1.88-2.24v-9.83c-8.08,6.17-16.55,4.31-25,2.62-8.14-1.63-16-4.32-24.43-4.82-6.89-.41-13.13.86-18.85,4.63-1.59,1.06-2.94,1.74-4.11-.13s-0.13-3.07,1.49-4.32c6.95-5.41,15-5.74,23-4.62,9.14,1.28,17.9,4.49,26.92,6.38,5.71,1.19,11.8,2,17.4-1.24,2.81-1.61,4.69-3.75,4.29-7.27a39.58,39.58,0,0,1,0-4.22c-0.12-2.5,1.12-3.85,3.52-3.75,2.6,0.14,2.81,2,2.33,4.08a16.87,16.87,0,0,0-.15,2.21c1.94-2.32,3.6-4.28,6.23-5.18,4.46-1.51,8.33,1,8.44,5.71a79,79,0,0,1-.62,11.55c-0.17,1.43-1.12,4,1.76,4a4.22,4.22,0,0,0,4.39-4v-0.05c0.35-7.71,1.72-15.25,2.92-22.83a45.18,45.18,0,0,1,.94-5.15c0.47-1.68,1.58-2.94,3.52-2.81,2.21,0.15,2.09,1.88,1.88,3.4-0.67,4.81-1.49,9.6-2.16,14.42-0.77,5.54-1.42,11.09-2.16,16.64a4.13,4.13,0,0,1-.58,1.17C-142.35,350.35-144.75,350.67-146.34,353.51Z" transform="translate(244.16 -251.08)"/><path class="cls-1" d="M-105.74,348.42c-4.13.09-7-2.47-10-5.13-1.44,2.6-2,5.53-4.09,7.5-2.43,2.31-5.19,2-8.2.67l1.92,14.18c0.67,1.94-.11,4,0.51,6V373c-0.72,2.28.29,4.69-.6,7-0.38,4.45-1.21,8.78-3.5,12.7-3.22,5.53-8.78,5.63-11.92.06a21.68,21.68,0,0,1-2.92-11.11c-0.62-1.16,0-2.51-.52-3.68v-5.63c1.37-.81,2.21-3.25,4.43-1.43,0.16,4-.3,8,0.24,12a19.38,19.38,0,0,0,1.79,8.32c1.53,3.06,4.06,3.3,6.06.45,2.66-3.75,3.18-8.37,3.39-12.7,0.47-9.25.38-18.53-2.57-27.53a22.5,22.5,0,0,0-2.93-6.23c-0.59-.83-0.87-1.63,0-2.5,1.13-1.15,1.63,0,2.23.59,1.28,1.2,2.48,2.48,3.75,3.75,3.61,3.49,6.48,3,8.62-1.58a32.74,32.74,0,0,0,1.42-4.58c0.94-3.31,1.88-3.53,4.29-1a20.5,20.5,0,0,0,5.93,4.69c4.79,2.21,9.62,1.08,14.27.12,9.22-1.88,18.23-4.84,27.49-6.49,8-1.43,15.94-.19,22.93,4.69,1.35,0.94,3,2.06,1.68,3.87-1.14,1.64-3,1.78-4.69.62-3.45-2.26-7-4.29-11.25-4.69a36.87,36.87,0,0,0-9.1,0c-8.44.62-16.36,3.89-24.65,5.27-3.24.54-6.49,1.44-9.84,1.06C-102.92,348.37-104.46,349.28-105.74,348.42Z" transform="translate(244.16 -251.08)"/><path class="cls-1" d="M-146.34,353.51c-1.59-2.5,1.3-2.75,2.11-3.16,1.4-.7,3.59-1.68,4.69.94,0.31,4.49-.62,8.91-0.83,13.37-0.52,1.53-.06,3.1-0.28,4.69-2.25-.07-2.42-0.23-4.39-4v-7.07c0.24-1.66.56-3.32-.11-5Z" transform="translate(244.16 -251.08)"/><path class="cls-1" d="M-145.05,365.33c1.88,0.94,2.43,3,4,4.22q0.38,0.23.24,0.45a0.36,0.36,0,0,1-.26.22c-1.26.83-2.08,2.45-4,2.13v-7h0Z" transform="translate(244.16 -251.08)"/><path class="cls-1" d="M-141.09,370.22a1.21,1.21,0,0,0,0-.68c0.46-1.6-.46-3.41.7-4.91v18.24C-141.74,378.72-140.46,374.42-141.09,370.22Z" transform="translate(244.16 -251.08)"/><path class="cls-1" d="M-145.15,353.31c0.94,1.71.94,2.46,0.11,5Z" transform="translate(244.16 -251.08)"/><path class="cls-1" d="M-125.62,371.63c-1.16-1.88-.38-4-0.51-6C-125.29,367.61-125.57,369.62-125.62,371.63Z" transform="translate(244.16 -251.08)"/><path class="cls-1" d="M-105.74,348.42c1.38,0.22,2.88-.47,4.13.59C-103,349-104.46,349.32-105.74,348.42Z" transform="translate(244.16 -251.08)"/></svg>