<?xml version="1.0" standalone="no"?>
<!DOCTYPE svg PUBLIC "-//W3C//DTD SVG 20010904//EN"
 "http://www.w3.org/TR/2001/REC-SVG-20010904/DTD/svg10.dtd">
<svg version="1.0" xmlns="http://www.w3.org/2000/svg"
 width="1200.000000pt" height="1200.000000pt" viewBox="0 0 1200.000000 1200.000000"
 preserveAspectRatio="xMidYMid meet">

<g transform="translate(0.000000,1200.000000) scale(0.100000,-0.100000)"
fill="#000000" stroke="none">
<path d="M4379 9740 c-8 -5 -264 -97 -569 -205 -650 -230 -864 -307 -868 -310
-1 -1 121 -46 273 -100 l275 -97 0 -289 0 -289 48 -35 c26 -19 71 -45 99 -57
l53 -23 0 -68 c0 -64 -1 -68 -27 -79 -16 -6 -34 -10 -40 -9 -7 1 -13 -3 -13
-9 0 -5 -6 -10 -14 -10 -8 0 -31 -9 -53 -20 -82 -41 -159 -73 -175 -72 -10 0
-18 -2 -18 -6 0 -4 -15 -13 -32 -20 -40 -17 -79 -34 -138 -60 -64 -30 -133
-59 -150 -64 -11 -4 -27 19 -56 81 -133 278 -370 423 -694 424 -363 0 -635
-204 -731 -548 -18 -64 -22 -105 -22 -205 1 -225 45 -337 238 -596 69 -93 145
-209 170 -259 l45 -90 0 -137 c0 -114 3 -147 21 -192 26 -71 93 -145 159 -176
l52 -24 -6 -251 c-27 -1041 -27 -1070 -11 -1108 8 -20 27 -44 43 -54 15 -10
29 -20 32 -23 3 -3 19 -12 35 -20 17 -8 42 -22 57 -32 14 -10 47 -21 72 -24
49 -7 55 -14 31 -34 -12 -10 -15 -41 -15 -160 l0 -147 37 -34 c21 -19 40 -35
43 -35 29 -8 50 -18 50 -23 0 -3 15 -12 33 -20 17 -7 37 -19 42 -25 6 -6 30
-21 55 -34 25 -12 59 -31 75 -41 17 -10 47 -28 68 -40 20 -11 54 -31 75 -42
20 -12 51 -30 67 -41 17 -10 38 -21 48 -24 9 -4 17 -10 17 -14 0 -4 11 -11 24
-14 14 -3 31 -12 38 -19 7 -7 30 -21 51 -30 20 -10 37 -22 37 -26 0 -5 12 -12
28 -16 15 -3 41 -17 59 -31 17 -13 34 -24 37 -24 3 0 33 -17 68 -37 96 -57
119 -70 166 -94 23 -13 42 -29 42 -36 0 -8 5 -11 10 -8 10 6 30 -4 135 -68 17
-9 38 -20 48 -23 9 -4 17 -10 17 -15 0 -5 4 -9 10 -9 5 0 49 -24 97 -52 48
-29 102 -60 118 -70 17 -10 47 -26 68 -35 20 -10 37 -23 37 -30 0 -7 8 -13 18
-13 9 -1 35 -12 57 -25 22 -14 47 -28 55 -32 8 -3 33 -18 55 -32 22 -14 58
-35 80 -47 72 -38 120 -66 136 -80 8 -8 19 -14 23 -14 4 0 46 -23 94 -51 48
-29 102 -60 120 -70 17 -11 49 -29 70 -41 20 -12 51 -28 67 -36 17 -9 35 -22
41 -30 7 -10 13 -12 18 -4 4 8 22 6 59 -5 38 -11 72 -13 130 -8 76 6 104 15
197 57 46 21 91 40 100 43 3 0 27 11 53 23 26 13 52 20 57 17 5 -3 12 1 17 8
9 15 116 67 137 67 8 0 16 3 18 8 2 4 39 22 83 40 44 19 92 40 107 48 14 8 33
14 42 14 9 0 16 5 16 10 0 6 6 10 14 10 8 0 31 9 53 20 55 28 156 72 169 74 7
1 18 6 25 12 8 6 34 19 59 29 25 10 72 31 105 46 116 53 190 87 240 108 28 12
59 26 70 31 11 5 50 23 88 40 37 17 72 28 77 25 6 -3 10 -2 10 4 0 14 213 111
245 111 8 0 15 3 15 8 0 4 15 13 33 21 17 8 64 29 102 46 39 18 93 42 120 54
83 37 87 38 165 74 41 19 98 44 125 56 86 37 80 24 79 170 -1 72 -3 134 -6
136 -4 4 -339 -141 -634 -276 -23 -10 -109 -48 -190 -84 -82 -36 -167 -74
-189 -85 l-40 -18 -47 26 c-253 145 -407 239 -405 247 2 6 145 73 319 150 173
77 344 153 379 169 35 16 100 44 143 63 44 19 94 40 110 48 172 79 211 95 222
95 7 0 41 -17 76 -39 96 -59 254 -151 259 -151 2 0 4 42 4 93 1 77 4 100 24
137 74 143 279 240 505 240 184 0 333 -56 429 -160 60 -64 77 -109 77 -199 0
-33 3 -61 8 -61 4 0 34 13 67 29 74 35 179 81 195 85 6 2 128 59 188 89 24 12
52 20 63 20 10 -1 19 3 19 8 0 5 12 14 28 19 51 19 77 34 110 64 l32 30 0 135
c-1 114 -3 139 -18 156 -20 25 -106 85 -121 85 -5 0 -14 6 -18 13 -4 6 -28 22
-53 34 -59 30 -82 45 -97 63 -7 8 -13 11 -13 7 0 -5 -13 1 -29 12 -16 12 -34
21 -40 21 -5 0 -15 8 -20 18 -6 9 -11 14 -11 10 0 -7 -12 -1 -97 48 -18 11
-33 25 -33 32 0 7 -5 10 -10 7 -12 -7 -130 62 -130 76 0 6 -5 7 -10 4 -6 -3
-23 3 -39 14 -16 12 -34 21 -40 21 -6 0 -11 5 -11 10 0 6 -7 10 -15 10 -9 0
-18 7 -21 15 -4 8 -14 15 -23 15 -9 0 -34 12 -56 27 -48 33 -94 60 -117 69
-10 3 -18 10 -18 15 0 5 -7 9 -15 9 -9 0 -18 7 -21 15 -4 8 -10 12 -15 9 -5
-3 -29 9 -53 25 -25 17 -49 31 -55 31 -5 0 -14 6 -18 13 -4 6 -24 20 -43 29
-19 10 -57 31 -85 48 -27 17 -58 33 -67 37 -10 3 -18 9 -18 14 0 5 -7 9 -15 9
-7 0 -18 6 -22 14 -4 8 -12 15 -18 16 -20 3 -74 32 -86 46 -6 8 -18 14 -25 14
-8 0 -14 4 -14 8 0 4 -16 14 -35 21 -19 7 -35 17 -35 22 0 5 -6 9 -14 9 -7 0
-25 11 -41 26 -15 14 -30 23 -32 20 -3 -3 -18 3 -33 14 -16 11 -33 20 -39 20
-5 0 -14 6 -18 13 -7 11 -49 35 -120 71 -13 6 -23 17 -23 24 0 7 -5 10 -10 7
-6 -3 -23 3 -39 14 -16 12 -32 21 -37 21 -4 0 -21 10 -38 23 -17 12 -52 33
-78 47 -27 13 -48 28 -48 32 0 5 -7 8 -15 8 -9 0 -18 7 -21 15 -4 8 -10 12
-15 9 -5 -3 -30 10 -56 28 -27 18 -52 33 -58 34 -5 2 -37 12 -69 23 -33 12
-76 21 -98 21 -21 0 -38 5 -38 10 0 6 -7 10 -15 10 -8 0 -15 -4 -15 -9 0 -12
-62 -23 -73 -12 -5 5 1 18 16 32 44 43 95 127 105 176 6 26 13 166 15 310 3
144 8 266 11 271 9 14 15 251 7 254 -7 3 2 975 14 1449 l6 266 -38 39 c-21 21
-49 45 -62 52 -13 8 -40 23 -60 34 -20 11 -40 24 -45 29 -6 5 -22 9 -37 9 -40
0 -129 -22 -129 -32 0 -4 -7 -8 -15 -8 -9 0 -27 -7 -40 -16 -13 -9 -28 -13
-33 -10 -6 3 -15 -1 -22 -9 -7 -8 -17 -15 -22 -15 -6 0 -26 -7 -46 -17 -64
-28 -166 -74 -187 -83 -11 -5 -42 -18 -68 -30 -26 -11 -52 -18 -57 -15 -6 4
-13 -1 -16 -9 -3 -9 -12 -16 -20 -16 -8 0 -22 -4 -32 -10 -15 -9 -67 -31 -82
-35 -3 0 -27 -11 -53 -23 -26 -13 -52 -20 -57 -17 -6 3 -10 2 -10 -4 0 -11
-80 -49 -122 -58 -16 -3 -28 -9 -28 -14 0 -5 -6 -9 -14 -9 -8 0 -31 -9 -53
-20 -61 -31 -126 -58 -158 -66 -17 -4 -32 -10 -35 -14 -7 -9 -99 -51 -132 -61
l-28 -8 0 68 0 67 238 84 c130 46 255 91 277 100 l39 17 -44 15 c-211 72
-1361 483 -1381 493 -15 7 -33 9 -40 5z m2425 -589 c18 -15 18 -35 11 -561 -4
-300 -12 -819 -19 -1155 -13 -671 -9 -637 -78 -702 -32 -31 -69 -50 -227 -117
-99 -43 -315 -137 -631 -276 -140 -61 -358 -157 -485 -212 -126 -55 -248 -108
-270 -118 -22 -10 -128 -56 -236 -103 -108 -47 -216 -94 -240 -105 -24 -11
-242 -106 -484 -212 -242 -105 -460 -201 -485 -212 -25 -11 -131 -57 -236
-103 -105 -46 -211 -92 -235 -103 -176 -80 -585 -254 -609 -258 -22 -5 -34 0
-55 20 -27 27 -27 29 -21 124 3 53 8 288 11 522 10 712 10 724 43 789 25 52
27 67 32 212 l5 157 43 83 c23 46 98 160 167 252 69 93 140 201 159 241 33 69
76 212 76 253 0 14 52 40 243 122 133 57 260 112 282 121 22 10 245 106 495
213 438 187 458 195 540 202 264 22 511 93 645 185 42 29 44 32 47 87 l3 58
495 212 c272 117 520 223 550 236 93 41 384 164 400 169 19 6 40 -1 64 -21z
m-3023 -231 c18 -10 19 -25 19 -341 0 -277 -2 -330 -14 -326 -7 3 -19 0 -25
-6 -8 -8 -11 80 -11 336 0 191 3 347 6 347 3 0 14 -5 25 -10z m-1296 -585 c33
-9 94 -33 135 -53 104 -50 230 -176 282 -282 89 -183 101 -387 33 -582 -33
-94 -58 -135 -193 -318 -62 -85 -132 -187 -154 -227 l-40 -73 -263 0 -262 0
-45 78 c-25 42 -96 145 -157 227 -190 257 -226 348 -226 570 1 125 4 149 28
220 81 242 274 410 521 455 71 13 269 4 341 -15z m1943 -122 c-21 -2 -55 -2
-75 0 -21 2 -4 4 37 4 41 0 58 -2 38 -4z m-1908 -1610 c0 -127 -13 -209 -30
-198 -6 3 -7 -1 -4 -9 9 -23 -71 -102 -122 -122 -63 -24 -155 -14 -209 24 -47
32 -100 115 -109 169 -3 21 -6 89 -6 151 l0 112 240 0 240 0 0 -127z m4556
-324 c66 -39 134 -79 152 -87 33 -16 37 -29 11 -44 -35 -20 -289 -128 -301
-128 -8 0 -34 13 -59 28 -24 16 -90 54 -146 86 -57 32 -103 61 -103 66 0 6
303 147 321 149 4 1 60 -31 125 -70z m-439 -146 c43 -25 87 -51 98 -57 96 -55
135 -79 135 -85 0 -4 -21 -17 -47 -28 -27 -11 -100 -44 -163 -72 l-115 -52
-143 85 c-78 48 -147 86 -152 86 -6 0 -10 6 -10 13 0 6 66 41 148 76 81 36
151 68 157 73 12 11 3 14 92 -39z m857 -100 c80 -49 146 -91 146 -96 0 -4 -11
-12 -25 -17 -14 -5 -44 -18 -68 -29 -23 -10 -125 -55 -226 -100 l-184 -81
-149 87 c-83 49 -150 92 -150 98 0 8 181 93 362 171 19 8 53 23 75 34 22 10
47 19 56 19 9 1 82 -38 163 -86z m-1208 -97 c60 -36 129 -77 154 -92 l45 -27
-55 -26 c-91 -43 -267 -121 -275 -121 -17 0 -305 174 -305 184 0 10 290 143
316 145 6 1 60 -28 120 -63z m1565 -114 c63 -38 182 -109 264 -157 301 -177
286 -167 274 -182 -6 -7 -15 -13 -19 -13 -5 0 -41 -15 -82 -34 -40 -18 -131
-59 -203 -91 -71 -31 -153 -68 -182 -81 l-52 -23 -141 84 c-78 47 -146 85
-151 85 -5 0 -9 6 -9 13 0 7 30 26 68 41 37 16 71 32 75 36 5 4 -45 38 -110
76 -154 89 -223 133 -223 142 0 4 21 16 48 26 26 11 79 34 117 51 39 18 95 43
125 55 30 13 59 27 65 32 14 13 16 12 136 -60z m-915 -33 c86 -51 152 -95 147
-100 -4 -4 -78 -39 -164 -77 l-156 -69 -149 87 c-81 49 -150 92 -152 98 -2 7
284 144 316 151 2 1 73 -40 158 -90z m-1007 -50 c83 -50 151 -94 151 -98 0 -5
-8 -11 -17 -14 -10 -3 -83 -35 -162 -70 l-144 -65 -51 31 c-28 17 -97 57 -154
90 -57 32 -102 63 -100 69 2 5 39 24 83 42 44 18 114 49 155 69 41 19 78 36
81 36 4 1 75 -40 158 -90z m631 -116 c82 -49 150 -93 150 -99 0 -6 -15 -15
-32 -21 -18 -6 -85 -34 -148 -63 -63 -29 -122 -54 -130 -57 -9 -2 -65 25 -125
60 -165 95 -198 118 -189 127 5 4 70 34 144 66 74 31 139 61 145 66 17 15 35
8 185 -79z m854 6 c163 -96 166 -98 166 -108 0 -4 -71 -39 -157 -78 l-158 -71
-35 19 c-79 41 -264 155 -267 165 -3 10 280 142 311 143 10 1 73 -31 140 -70z
m-1888 -60 c180 -104 178 -102 119 -128 -26 -12 -49 -21 -51 -21 -1 0 -40 -17
-86 -38 -158 -73 -127 -75 -285 17 -76 44 -147 87 -158 95 -20 14 -20 15 5 25
14 5 86 37 160 70 74 33 140 60 146 60 7 1 74 -35 150 -80z m660 -115 c80 -47
144 -90 142 -96 -2 -5 -60 -34 -128 -64 -69 -30 -139 -61 -157 -70 -32 -15
-33 -14 -150 54 -189 111 -195 114 -186 123 14 13 297 138 316 138 10 1 84
-38 163 -85z m849 16 c65 -39 131 -78 146 -86 16 -8 29 -20 29 -27 0 -6 -72
-43 -160 -80 l-160 -68 -150 87 c-82 48 -150 92 -150 98 1 10 290 143 316 145
6 1 64 -31 129 -69z m-1966 -40 c46 -28 85 -50 87 -50 9 0 128 -78 131 -86 3
-9 -300 -147 -322 -147 -15 0 -305 174 -305 183 0 5 301 146 320 149 3 1 43
-22 89 -49z m3558 -68 c81 -49 147 -92 146 -96 -1 -5 -150 -75 -331 -156
l-329 -147 -39 22 c-146 83 -258 152 -261 161 -2 6 97 55 219 109 299 132 390
173 408 184 8 6 20 10 27 10 6 1 78 -39 160 -87z m-976 -39 c82 -48 149 -92
149 -98 0 -5 -21 -19 -48 -29 -26 -11 -83 -36 -127 -56 -157 -72 -129 -75
-297 26 -133 80 -173 113 -135 114 6 0 75 29 152 64 77 36 144 65 148 65 5 1
76 -38 158 -86z m-1868 -19 c191 -110 182 -104 166 -118 -8 -7 -54 -30 -104
-51 -49 -21 -115 -49 -145 -63 -30 -14 -59 -25 -65 -25 -5 0 -66 33 -135 73
-69 41 -138 80 -153 88 -16 8 -25 18 -20 23 6 6 305 144 321 148 1 1 62 -33
135 -75z m884 0 c70 -42 138 -81 151 -87 33 -15 27 -31 -20 -52 -24 -10 -96
-42 -160 -71 l-117 -53 -156 91 c-122 72 -153 94 -143 103 7 7 63 33 123 59
61 26 126 55 145 66 19 10 38 18 42 19 4 1 64 -33 135 -75z m-1967 -66 c58
-33 124 -72 148 -85 38 -23 57 -53 32 -53 -6 0 -77 -29 -158 -65 -80 -36 -151
-64 -158 -63 -28 7 -303 174 -301 183 4 10 294 143 317 144 8 1 62 -27 120
-61z m2633 -108 c53 -30 97 -60 97 -66 0 -6 -24 -22 -52 -34 -29 -12 -80 -35
-113 -50 -33 -15 -81 -37 -107 -49 l-48 -21 -37 24 c-65 40 -227 134 -245 141
-28 11 -21 31 15 46 36 14 181 79 242 108 l40 19 55 -31 c31 -18 100 -57 153
-87z m-1900 -10 c128 -74 173 -110 136 -110 -5 0 -29 -9 -52 -19 -139 -63
-251 -111 -259 -111 -22 0 -308 173 -308 186 0 8 5 14 11 14 14 0 270 110 284
122 16 14 34 7 188 -82z m888 3 c82 -47 149 -90 149 -94 0 -5 -19 -17 -42 -28
-219 -99 -273 -121 -283 -119 -25 7 -304 174 -302 181 2 8 304 146 321 147 4
0 75 -39 157 -87z m-2019 -59 c62 -37 129 -76 148 -86 63 -35 62 -39 -25 -76
-27 -12 -96 -41 -153 -66 l-102 -45 -146 84 c-80 47 -150 85 -155 85 -5 0 -9
6 -9 13 0 6 66 41 148 76 81 35 151 68 157 72 15 14 18 13 137 -57z m3551 23
c40 -24 105 -63 145 -86 39 -23 72 -45 72 -49 0 -5 -80 -43 -177 -87 -98 -43
-211 -94 -251 -112 -39 -18 -75 -33 -78 -33 -3 0 -30 16 -60 35 -30 19 -56 35
-58 35 -2 0 -43 24 -91 53 -82 49 -113 77 -85 77 6 0 30 9 53 19 23 11 105 47
182 81 77 34 163 72 190 85 28 13 58 24 68 24 10 1 51 -19 90 -42z m-934 -94
c83 -48 151 -90 151 -94 0 -3 -64 -34 -142 -69 -79 -35 -152 -67 -164 -72 -17
-8 -46 5 -155 69 -74 44 -142 82 -152 86 -10 4 -17 12 -15 19 4 12 291 146
315 147 6 1 79 -38 162 -86z m-970 -35 c80 -46 146 -88 148 -94 2 -7 -13 -18
-34 -27 -21 -8 -63 -26 -93 -40 -30 -14 -86 -39 -123 -56 l-69 -31 -151 88
c-83 48 -152 92 -153 97 -4 11 305 155 321 150 6 -2 75 -41 154 -87z m-897 -5
c82 -47 147 -90 146 -95 -2 -5 -39 -25 -83 -45 -44 -19 -113 -50 -153 -69 -41
-19 -77 -34 -82 -34 -18 0 -305 171 -305 182 0 11 286 146 314 147 8 1 81 -38
163 -86z m-1166 -56 c49 -30 117 -69 151 -88 35 -19 61 -38 60 -43 -4 -11
-304 -146 -325 -146 -8 0 -51 22 -96 49 -91 55 -148 87 -189 109 -15 8 -27 18
-25 24 3 9 303 146 324 147 6 1 51 -23 100 -52z m2648 -73 c80 -48 146 -93
146 -100 0 -8 -5 -14 -11 -14 -5 0 -29 -9 -52 -19 -23 -10 -89 -40 -147 -66
l-105 -47 -35 18 c-106 57 -281 167 -273 173 4 4 46 24 93 44 47 20 114 49
150 66 36 17 70 30 77 31 6 0 77 -39 157 -86z m749 33 c29 -18 94 -57 144 -86
101 -57 113 -68 86 -78 -25 -8 -72 -29 -266 -117 -93 -42 -170 -76 -172 -76
-2 0 -32 -13 -67 -29 -35 -16 -110 -50 -168 -76 -58 -26 -123 -55 -145 -65
-22 -10 -128 -57 -235 -105 -107 -48 -220 -98 -250 -112 -133 -61 -115 -61
-221 0 -183 105 -209 121 -206 130 1 5 52 32 112 59 61 27 128 57 150 67 22
10 94 42 160 71 66 29 190 84 275 123 85 38 200 90 255 114 109 48 133 58 334
150 75 34 142 62 149 62 7 1 36 -14 65 -32z m-2588 -85 c66 -38 120 -75 120
-81 0 -7 -49 -34 -110 -60 -60 -26 -130 -57 -154 -69 -25 -12 -48 -22 -52 -22
-3 0 -58 30 -120 67 -63 36 -131 76 -151 87 -21 12 -38 26 -38 31 0 6 46 30
103 54 56 25 129 57 162 72 59 27 60 27 90 9 16 -10 84 -49 150 -88z m841 43
c60 -35 129 -76 153 -90 24 -15 40 -30 35 -34 -13 -12 -307 -141 -320 -141
-15 0 -284 156 -304 176 -13 13 -13 15 5 20 11 3 83 34 160 69 77 35 145 64
151 64 7 1 61 -28 120 -64z m628 -154 c135 -79 177 -111 148 -111 -6 0 -76
-29 -157 -65 -80 -36 -152 -65 -159 -65 -22 0 -301 166 -301 179 0 7 52 35
115 62 63 28 133 59 155 69 22 10 42 19 45 19 3 0 72 -39 154 -88z m-2770 -42
c86 -50 156 -94 156 -98 0 -3 -74 -39 -165 -78 l-166 -72 -154 87 c-85 48
-154 92 -154 98 -1 6 65 39 147 74 81 35 151 67 157 72 5 4 12 8 16 8 3 0 77
-41 163 -91z m1808 7 c79 -46 143 -90 143 -96 0 -6 -72 -43 -160 -81 -153 -67
-161 -69 -185 -55 -14 9 -82 48 -152 88 -70 40 -128 77 -128 81 0 4 28 21 63
37 146 67 243 108 259 109 9 1 81 -37 160 -83z m-930 -15 c84 -49 152 -93 152
-97 -2 -8 -759 -349 -800 -360 -16 -4 -65 19 -173 81 -84 48 -150 92 -149 97
2 6 118 61 258 123 140 62 320 142 400 178 80 36 148 66 152 66 4 1 76 -39
160 -88z m1531 -121 c81 -47 147 -88 147 -91 0 -11 -322 -150 -336 -145 -8 3
-58 31 -111 62 -54 31 -114 65 -133 76 -19 11 -41 26 -49 34 -13 11 -12 14 5
20 10 4 82 36 159 71 77 34 147 62 155 60 9 -1 82 -40 163 -87z m-994 -19 c64
-38 128 -75 144 -82 15 -7 27 -16 27 -21 0 -5 -39 -27 -87 -49 -49 -22 -102
-46 -118 -54 -17 -7 -51 -23 -77 -34 l-48 -20 -124 74 c-68 40 -139 81 -156
90 -18 9 -28 20 -24 25 5 5 65 34 134 65 69 31 139 62 155 70 17 8 36 12 44
10 8 -3 66 -37 130 -74z m611 -139 c84 -49 152 -92 152 -97 0 -5 -73 -41 -161
-82 l-161 -72 -98 57 c-53 32 -123 73 -155 91 -47 27 -56 36 -46 47 6 8 15 14
19 14 5 0 41 15 82 34 40 18 98 44 128 56 30 13 59 27 65 32 5 4 12 8 16 8 4
0 76 -40 159 -88z m-969 -39 c82 -49 149 -94 149 -100 0 -7 -4 -13 -9 -13 -5
0 -141 -59 -302 -131 -283 -125 -295 -130 -319 -115 -14 9 -82 48 -152 88 -70
40 -128 78 -128 83 0 6 55 35 123 64 180 79 249 111 361 163 56 25 107 47 114
47 8 1 81 -38 163 -86z m527 -93 c46 -28 85 -50 87 -50 11 0 126 -77 127 -85
0 -5 -69 -40 -154 -77 -84 -38 -177 -80 -206 -93 -29 -14 -54 -25 -57 -25 -2
0 -88 -38 -192 -85 -117 -54 -196 -84 -208 -81 -31 8 -298 170 -297 180 0 4
81 44 179 86 98 43 277 123 398 178 121 55 225 101 230 101 6 1 47 -22 93 -49z
m904 -66 c81 -47 148 -89 148 -93 0 -5 -30 -22 -67 -38 -38 -17 -150 -67 -250
-112 -99 -44 -186 -81 -192 -81 -18 0 -306 170 -306 181 0 6 41 28 90 49 50
21 160 70 245 108 85 39 161 71 169 71 8 1 81 -38 163 -85z m-620 -215 c155
-89 203 -119 203 -130 0 -5 -139 -71 -310 -147 -170 -76 -326 -146 -346 -155
l-35 -17 -150 86 c-82 47 -153 90 -158 95 -6 5 12 18 45 33 182 82 422 189
559 251 41 18 81 34 89 34 7 1 54 -22 103 -50z"/>
<path d="M4895 7765 c-33 -7 -78 -20 -100 -29 -55 -23 -109 -50 -115 -57 -3
-3 -23 -16 -45 -29 -63 -37 -199 -155 -263 -228 -110 -126 -225 -302 -267
-409 -17 -42 -17 -42 9 -68 14 -14 28 -25 31 -25 3 0 63 -34 134 -75 99 -58
130 -82 142 -107 12 -28 56 -62 109 -85 8 -4 17 -9 20 -12 3 -3 26 -17 53 -31
26 -13 47 -28 47 -32 0 -5 6 -8 14 -8 7 0 24 -9 38 -19 13 -11 37 -23 51 -26
15 -4 27 -11 27 -16 0 -5 6 -9 13 -9 8 0 24 -9 37 -20 13 -11 28 -20 33 -20 6
0 19 -7 29 -17 49 -44 133 7 163 100 22 66 12 82 -69 126 -65 34 -75 54 -35
66 10 4 19 10 19 14 0 4 18 14 39 21 33 11 45 10 83 -4 61 -24 93 -10 119 49
25 56 22 97 -8 110 -13 5 -23 13 -23 17 0 5 -5 8 -11 8 -22 0 -170 93 -166
104 2 6 8 11 13 11 5 0 14 3 19 6 6 4 33 12 61 19 46 12 57 11 114 -9 35 -11
69 -21 76 -21 22 0 74 64 85 103 14 51 -3 76 -74 110 -29 14 -60 31 -68 39 -9
7 -37 25 -64 39 -27 14 -50 30 -52 36 -5 14 90 31 153 27 29 -1 74 -13 100
-25 27 -12 62 -22 78 -22 57 0 117 101 95 161 -7 18 -27 35 -62 52 -29 14 -54
27 -57 30 -3 3 -18 12 -35 20 -16 8 -32 17 -35 20 -3 3 -23 14 -44 25 -22 11
-44 25 -50 30 -18 17 -108 54 -156 65 -59 13 -131 11 -205 -5z"/>
<path d="M2392 6604 c-1 -71 -8 -141 -17 -170 -16 -55 -62 -116 -109 -146 -22
-14 -25 -18 -11 -16 11 2 35 19 54 38 19 19 39 34 44 32 4 -1 6 1 3 6 -3 5 3
26 14 47 28 54 31 84 28 215 l-4 115 -2 -121z"/>
<path d="M2327 6289 c7 -7 15 -10 18 -7 3 3 -2 9 -12 12 -14 6 -15 5 -6 -5z"/>
<path d="M9065 8161 c-6 -5 -30 -20 -55 -33 -25 -14 -94 -53 -155 -88 -60 -35
-148 -84 -195 -110 -198 -110 -286 -162 -305 -181 -28 -28 -26 -106 3 -144 26
-33 35 -25 -116 -109 -95 -53 -102 -59 -85 -72 17 -14 16 -14 -5 -4 -17 8 -25
8 -35 -2 -28 -32 -38 -60 -31 -91 4 -18 7 -36 6 -40 -5 -20 35 -66 82 -94 43
-26 257 -144 416 -230 25 -14 173 -95 329 -180 156 -86 304 -162 330 -170 61
-19 213 -19 273 0 43 14 229 115 683 373 99 56 183 100 188 97 4 -2 7 -49 7
-103 l0 -100 -37 -19 c-34 -17 -283 -156 -704 -395 -125 -70 -143 -77 -220
-88 -151 -20 -142 -23 -684 274 -176 96 -364 200 -419 229 -54 30 -114 68
-132 85 -29 27 -34 38 -35 80 -1 27 -2 61 -2 77 -1 37 -19 34 -57 -10 -30 -34
-32 -41 -27 -89 6 -61 21 -89 62 -114 17 -10 167 -93 335 -185 168 -92 328
-180 355 -195 28 -15 95 -52 150 -82 55 -30 125 -69 155 -86 89 -50 158 -65
275 -60 124 4 104 -5 600 278 55 31 182 103 283 160 l182 102 0 163 0 162 -39
-1 c-31 0 -41 -5 -46 -21 -6 -17 -8 -18 -12 -3 -7 26 18 48 39 35 9 -6 20 -8
24 -4 10 9 14 6 -106 70 l-105 55 -3 125 c-2 84 -7 128 -15 135 -7 5 -48 28
-92 52 -44 24 -110 60 -147 81 -36 22 -69 39 -71 39 -3 0 -44 23 -92 50 -48
28 -88 50 -90 50 -2 0 -70 37 -152 81 -81 45 -191 105 -243 134 -179 98 -195
107 -204 116 -6 5 -19 9 -31 9 -12 0 -25 -4 -30 -9z m-321 -780 c481 -265 494
-271 562 -280 72 -11 165 3 219 31 22 11 167 92 323 180 155 87 289 161 297
164 12 5 15 -7 15 -74 l0 -79 -322 -181 c-392 -218 -371 -208 -438 -216 -107
-13 -136 -1 -565 233 -220 121 -408 230 -417 243 -11 15 -18 48 -20 96 -2 39
-3 72 -1 72 1 0 157 -85 347 -189z m-370 164 c-4 -8 -11 -15 -16 -15 -6 0 -5
6 2 15 7 8 14 15 16 15 2 0 1 -7 -2 -15z m-34 -36 c0 -5 -4 -7 -10 -4 -6 3 -7
-1 -4 -9 3 -9 1 -16 -5 -16 -6 0 -11 9 -11 20 0 11 7 20 15 20 8 0 15 -5 15
-11z m-60 -29 c0 -5 -4 -10 -10 -10 -5 0 -10 -9 -10 -20 0 -18 -2 -19 -20 -8
-20 13 -20 13 2 30 26 20 38 22 38 8z m-70 -40 c0 -5 -7 -10 -15 -10 -8 0 -15
5 -15 10 0 6 7 10 15 10 8 0 15 -4 15 -10z m145 -100 c-3 -5 -12 -10 -18 -10
-7 0 -6 4 3 10 19 12 23 12 15 0z m70 -38 c-3 -3 -11 0 -18 7 -9 10 -8 11 6 5
10 -3 15 -9 12 -12z m-279 -26 c15 5 16 4 4 -5 -13 -9 -12 -12 5 -26 11 -8 45
-27 75 -43 30 -16 66 -35 80 -42 14 -8 28 -14 32 -15 3 0 10 -3 14 -7 19 -19
-35 -5 -68 17 -20 14 -40 25 -43 25 -10 0 -120 72 -127 84 -4 6 -8 16 -8 21 0
6 4 4 8 -3 5 -7 17 -10 28 -6z m68 -32 c8 -20 -8 -17 -28 5 -17 19 -17 19 2
14 12 -3 23 -11 26 -19z m2036 -4 c0 -5 -6 -10 -14 -10 -8 0 -18 5 -21 10 -3
6 3 10 14 10 12 0 21 -4 21 -10z m-1651 -26 c14 -12 -19 -1 -35 12 -18 14 -18
14 6 3 14 -6 27 -13 29 -15z m1584 9 c14 -17 14 -18 -8 -18 -16 0 -20 4 -14
11 5 6 6 14 2 17 -3 4 -4 7 -1 7 3 0 12 -8 21 -17z m-1683 -3 c-20 -13 -43
-13 -35 0 3 6 16 10 28 10 18 0 19 -2 7 -10z m1830 -11 c0 -14 -16 -11 -29 5
-10 12 -8 13 8 9 12 -3 21 -9 21 -14z m-93 5 c-3 -3 -12 -4 -19 -1 -8 3 -5 6
6 6 11 1 17 -2 13 -5z m-1692 -14 c-3 -5 -16 -10 -28 -9 -21 0 -21 1 -2 9 28
12 37 12 30 0z m1580 0 c3 -5 -1 -10 -9 -10 -9 0 -16 5 -16 10 0 6 4 10 9 10
6 0 13 -4 16 -10z m-1735 -40 c0 -5 -7 -10 -15 -10 -8 0 -15 5 -15 10 0 6 7
10 15 10 8 0 15 -4 15 -10z m310 -1 c12 -8 10 -9 -7 -4 -15 4 -23 2 -23 -6 0
-7 -3 -10 -6 -6 -7 7 4 27 14 27 4 0 14 -5 22 -11z m1350 -24 c0 -12 -29 -3
-34 10 -4 13 -2 14 14 5 11 -6 20 -13 20 -15z m-1305 -16 c-4 -5 -13 -9 -21
-9 -12 0 -12 2 -2 14 14 15 32 11 23 -5z m1565 11 c0 -5 -4 -10 -10 -10 -5 0
-10 5 -10 10 0 6 5 10 10 10 6 0 10 -4 10 -10z m-1894 -25 c12 -9 14 -14 6
-15 -7 0 -20 7 -28 15 -20 19 -4 20 22 0z m414 -15 c12 -8 9 -10 -13 -10 -16
0 -26 4 -22 10 8 12 16 12 35 0z m1200 0 c0 -5 -9 -10 -21 -10 -11 0 -17 5
-14 10 3 6 13 10 21 10 8 0 14 -4 14 -10z m-1489 -26 c13 9 35 16 49 15 27 -1
24 -3 -38 -24 -14 -4 -21 -13 -18 -21 3 -8 -14 -3 -44 13 -28 15 -50 31 -50
36 0 4 18 -2 39 -14 37 -20 40 -21 62 -5z m1699 -19 c-7 -8 -20 -14 -29 -14
-13 1 -13 2 2 6 9 2 17 9 17 14 0 5 5 9 11 9 8 0 8 -5 -1 -15z m-1310 -17 c0
-6 -6 -5 -15 2 -8 7 -15 14 -15 16 0 2 7 1 15 -2 8 -4 15 -11 15 -16z m875 2
c3 -5 1 -10 -4 -10 -6 0 -11 5 -11 10 0 6 2 10 4 10 3 0 8 -4 11 -10z m-1221
-15 c11 -8 17 -17 14 -21 -7 -6 -48 17 -48 28 0 12 13 9 34 -7z m321 -5 c-3
-5 -11 -10 -16 -10 -6 0 -7 5 -4 10 3 6 11 10 16 10 6 0 7 -4 4 -10z m-245
-10 c0 -5 -5 -10 -11 -10 -5 0 -7 5 -4 10 3 6 8 10 11 10 2 0 4 -4 4 -10z
m370 -33 c0 -5 -13 1 -30 13 -16 12 -30 24 -30 26 0 3 14 -3 30 -13 17 -9 30
-21 30 -26z m760 23 c0 -5 -4 -10 -10 -10 -5 0 -10 5 -10 10 0 6 5 10 10 10 6
0 10 -4 10 -10z m-921 -29 c-15 -5 -22 6 -14 19 6 9 10 9 16 -1 5 -8 4 -15 -2
-18z m881 19 c0 -5 -2 -10 -4 -10 -3 0 -8 5 -11 10 -3 6 -1 10 4 10 6 0 11 -4
11 -10z m110 0 c0 -5 -4 -10 -10 -10 -5 0 -10 5 -10 10 0 6 5 10 10 10 6 0 10
-4 10 -10z m-1182 -12 c8 -1 9 -5 3 -11 -5 -5 -20 -2 -37 8 -27 15 -27 16 -4
10 14 -4 31 -7 38 -7z m1039 -11 c-6 -20 -27 -19 -27 2 0 14 5 19 15 14 9 -3
14 -10 12 -16z m-956 -17 c5 0 9 -6 9 -13 0 -6 14 -18 31 -26 17 -7 42 -24 56
-37 14 -13 31 -24 36 -24 6 0 7 -3 4 -6 -8 -8 -74 23 -84 39 -4 7 -27 19 -51
27 -24 7 -51 20 -60 28 -16 13 -15 13 3 7 11 -4 29 -9 40 -12 19 -4 18 -3 -3
15 -15 14 -18 22 -10 25 7 2 14 -2 16 -10 2 -7 8 -13 13 -13z m1297 16 c-10
-7 -18 -19 -18 -27 0 -10 -2 -11 -12 0 -11 10 -9 15 6 27 11 8 25 14 30 14 6
0 3 -7 -6 -14z m-78 -16 c0 -5 -4 -10 -10 -10 -5 0 -10 5 -10 10 0 6 5 10 10
10 6 0 10 -4 10 -10z m-885 -10 c-3 -5 -10 -10 -16 -10 -5 0 -9 5 -9 10 0 6 7
10 16 10 8 0 12 -4 9 -10z m585 1 c0 -13 -27 -21 -46 -14 -13 5 -13 7 -2 14
17 11 48 11 48 0z m-803 -27 c-9 -9 -28 6 -21 18 4 6 10 6 17 -1 6 -6 8 -13 4
-17z m259 -3 c-12 -19 -24 -12 -19 10 4 13 9 17 15 11 6 -6 7 -15 4 -21z m-41
-11 c3 -5 -7 -9 -22 -8 -15 1 -36 -2 -46 -6 -13 -6 -16 -5 -11 8 7 18 69 23
79 6z m120 -20 c3 -6 -4 -10 -17 -10 -18 0 -20 2 -8 10 19 12 18 12 25 0z
m-265 -35 c7 -8 8 -15 2 -15 -5 0 -15 7 -22 15 -7 8 -8 15 -2 15 5 0 15 -7 22
-15z m840 -15 c0 -5 -4 -10 -10 -10 -5 0 -10 5 -10 10 0 6 5 10 10 10 6 0 10
-4 10 -10z m48 -5 c-2 -1 -14 -8 -28 -15 -25 -13 -25 -13 -6 8 10 12 23 19 28
16 5 -3 8 -7 6 -9z m-873 -16 c16 -16 -19 -9 -40 7 -19 16 -19 16 5 9 14 -4
29 -11 35 -16z m795 -13 c0 -8 -7 -16 -15 -20 -13 -4 -14 -2 -5 14 13 23 20
26 20 6z m-755 -24 c-3 -3 -11 0 -18 7 -9 10 -8 11 6 5 10 -3 15 -9 12 -12z
m65 -14 c0 -11 -22 -10 -39 1 -10 7 -7 9 12 8 15 -1 27 -5 27 -9z m79 -17 c7
-5 9 -11 4 -14 -4 -3 -17 1 -28 9 -21 16 0 20 24 5z m441 -6 c0 -18 -1 -18
-36 0 l-29 15 33 0 c22 0 32 -5 32 -15z m90 5 c0 -5 -4 -10 -10 -10 -5 0 -10
5 -10 10 0 6 5 10 10 10 6 0 10 -4 10 -10z m-538 -27 c85 -46 94 -53 78 -53
-8 0 -44 18 -80 40 -75 46 -74 53 2 13z m428 -37 c0 -2 -7 -7 -16 -10 -8 -3
-12 -2 -9 4 6 10 25 14 25 6z m-277 -23 c-7 -2 -21 -2 -30 0 -10 3 -4 5 12 5
17 0 24 -2 18 -5z m197 -3 c-20 -13 -50 -13 -50 0 0 6 15 10 33 10 24 0 28 -3
17 -10z"/>
<path d="M7960 6431 c0 -7 17 -30 39 -50 51 -48 56 -52 126 -88 74 -38 138
-73 190 -103 22 -12 78 -43 125 -67 47 -25 90 -48 95 -53 6 -4 42 -25 80 -46
39 -20 126 -68 195 -106 69 -37 130 -68 137 -68 6 0 13 -4 15 -8 7 -19 309
-173 378 -193 68 -21 243 -18 308 5 30 10 127 60 215 111 89 51 172 95 185 99
12 4 22 11 22 16 0 5 9 12 21 15 11 4 77 39 147 79 160 92 213 122 282 159 62
33 183 102 218 124 12 7 20 18 17 23 -3 5 -33 -7 -68 -27 -34 -19 -91 -51
-127 -71 -68 -37 -122 -68 -155 -90 -11 -6 -31 -17 -45 -23 -13 -5 -27 -13
-30 -17 -3 -4 -23 -16 -45 -27 -22 -11 -73 -39 -113 -62 -40 -24 -77 -43 -82
-43 -6 0 -10 -3 -10 -8 0 -4 -17 -15 -37 -25 -21 -10 -59 -30 -85 -45 -137
-79 -298 -161 -338 -171 -42 -11 -220 -10 -290 2 -23 3 -76 29 -235 114 -33
17 -76 39 -95 49 -19 10 -37 21 -40 25 -3 3 -52 30 -110 60 -58 30 -107 56
-110 59 -3 3 -21 14 -40 24 -19 10 -80 44 -135 75 -55 31 -129 71 -165 90 -36
18 -83 44 -105 57 -22 13 -60 34 -85 47 -76 40 -115 62 -120 68 -3 4 -15 10
-28 13 -12 4 -41 26 -62 49 -22 22 -40 35 -40 28z"/>
<path d="M9120 5856 c0 -2 7 -7 16 -10 8 -3 12 -2 9 4 -6 10 -25 14 -25 6z"/>
<path d="M2408 3576 c-227 -121 -542 -303 -552 -318 -8 -14 -6 -22 9 -36 35
-33 1252 -703 1287 -708 20 -4 49 0 71 10 46 19 587 324 606 341 7 7 10 21 7
31 -4 12 -109 77 -273 169 -962 537 -996 555 -1034 555 -26 0 -65 -14 -121
-44z m501 -250 c189 -105 346 -197 349 -205 7 -19 -3 -26 -193 -132 -120 -67
-166 -89 -186 -85 -25 5 -703 376 -723 396 -16 16 7 32 179 128 184 102 183
102 210 95 11 -3 175 -91 364 -197z m770 -395 l34 -18 -64 -35 c-152 -84 -446
-238 -455 -238 -5 0 -22 11 -39 24 -27 22 -28 26 -15 40 8 8 107 67 220 130
222 124 252 133 319 97z"/>
<path d="M2295 3370 c3 -5 15 -10 26 -10 10 0 19 5 19 10 0 6 -12 10 -26 10
-14 0 -23 -4 -19 -10z"/>
<path d="M2198 3313 c6 -2 18 -2 25 0 6 3 1 5 -13 5 -14 0 -19 -2 -12 -5z"/>
<path d="M2604 3285 c15 -8 33 -15 40 -15 16 1 -36 29 -54 30 -8 0 -2 -7 14
-15z"/>
<path d="M2546 3281 c-3 -5 0 -13 7 -19 27 -22 138 -72 159 -72 17 0 20 2 9 9
-8 5 -21 7 -29 3 -10 -4 -13 -1 -8 7 5 8 3 11 -5 9 -18 -3 -119 43 -119 54 0
5 5 6 12 2 7 -4 8 -3 4 4 -9 14 -23 15 -30 3z"/>
<path d="M2729 3219 c18 -11 35 -18 38 -15 5 5 -50 36 -64 36 -4 0 7 -9 26
-21z"/>
<path d="M2995 3190 c3 -5 8 -10 11 -10 2 0 4 5 4 10 0 6 -5 10 -11 10 -5 0
-7 -4 -4 -10z"/>
<path d="M2920 3151 c0 -7 -5 -9 -12 -5 -7 5 -8 3 -3 -5 5 -9 10 -10 18 -2 6
6 8 14 4 18 -4 3 -7 1 -7 -6z"/>
<path d="M2824 3106 c-10 -8 -16 -18 -11 -22 4 -4 7 -2 7 5 0 7 5 9 10 6 6 -3
10 -1 10 5 0 6 5 8 12 4 7 -4 8 -3 4 4 -9 15 -8 15 -32 -2z"/>
<path d="M2915 3069 c-4 -6 -4 -13 -1 -16 3 -4 6 -1 6 6 0 7 5 9 12 5 7 -4 8
-3 4 4 -9 15 -13 15 -21 1z"/>
<path d="M2730 3050 c0 -5 5 -10 11 -10 5 0 7 5 4 10 -3 6 -8 10 -11 10 -2 0
-4 -4 -4 -10z"/>
<path d="M2890 3049 c0 -5 -4 -7 -10 -4 -5 3 -10 1 -10 -5 0 -6 -5 -8 -12 -4
-7 4 -8 3 -4 -4 5 -9 13 -9 27 -2 17 10 27 30 14 30 -3 0 -5 -5 -5 -11z"/>
<path d="M3000 3039 c0 -5 -4 -7 -10 -4 -5 3 -10 1 -10 -5 0 -6 -4 -8 -10 -5
-5 3 -10 1 -10 -5 0 -6 -5 -8 -12 -4 -7 4 -8 3 -4 -4 7 -12 32 -2 76 27 13 9
13 11 -2 11 -10 0 -18 -5 -18 -11z"/>
<path d="M2810 3010 c0 -5 5 -10 11 -10 5 0 7 5 4 10 -3 6 -8 10 -11 10 -2 0
-4 -4 -4 -10z"/>
<path d="M2895 2990 c-21 -14 -25 -20 -12 -20 9 0 17 5 17 11 0 5 5 7 10 4 6
-3 10 -1 10 5 0 6 5 8 12 4 7 -4 8 -3 4 4 -9 15 -5 16 -41 -8z"/>
<path d="M1695 3130 c3 -5 347 -198 765 -430 825 -459 807 -450 891 -412 83
37 704 393 724 415 l20 21 -20 -16 c-11 -8 -182 -107 -380 -219 -348 -197
-361 -204 -415 -204 -54 0 -71 9 -823 427 -422 235 -765 423 -762 418z"/>
<path d="M6820 882 c0 -25 -13 -30 -78 -26 -46 3 -57 0 -78 -21 -23 -24 -30
-57 -18 -90 9 -23 62 -48 90 -41 13 4 24 2 24 -4 0 -17 -50 -23 -76 -10 -28
16 -44 6 -23 -15 26 -26 72 -29 102 -5 25 20 27 27 27 91 0 55 3 69 15 69 11
0 15 -12 15 -45 0 -52 23 -83 61 -80 22 1 24 6 27 59 2 38 8 59 18 63 29 11
15 31 -20 29 -40 -4 -58 5 -54 24 2 8 -5 16 -14 18 -13 2 -18 -3 -18 -16z
m-72 -64 c17 -17 15 -63 -3 -78 -22 -18 -64 -4 -71 24 -12 50 40 88 74 54z
m132 -39 c0 -36 -4 -49 -12 -47 -19 7 -20 98 -2 98 10 0 14 -14 14 -51z"/>
<path d="M6347 853 c-4 -3 -7 -48 -7 -100 0 -76 3 -93 15 -93 9 0 15 9 15 24
0 23 3 24 34 19 72 -11 114 80 61 132 -25 26 -69 33 -80 15 -5 -8 -11 -8 -19
-1 -7 6 -16 8 -19 4z m101 -35 c7 -7 12 -24 12 -38 0 -31 -17 -50 -45 -50 -28
0 -45 19 -45 50 0 31 17 50 45 50 12 0 26 -5 33 -12z"/>
<path d="M6502 781 c3 -85 21 -103 26 -26 4 57 16 77 46 73 18 -3 22 -12 26
-61 6 -73 24 -79 28 -9 5 79 -13 101 -78 100 l-51 -1 3 -76z"/>
<path d="M6961 834 c-12 -15 -21 -40 -21 -56 0 -36 40 -78 73 -78 25 0 77 34
77 51 0 14 -26 11 -40 -6 -15 -18 -51 -20 -68 -3 -22 22 -12 28 51 28 58 0 63
-2 79 -30 9 -16 29 -32 43 -36 30 -8 73 9 82 31 9 24 -3 29 -29 11 -30 -21
-51 -20 -73 3 -17 20 -16 20 46 23 62 3 64 4 61 28 -3 32 -36 60 -71 60 -27 0
-63 -29 -74 -60 -5 -13 -6 -13 -6 1 -2 26 -45 59 -78 59 -22 0 -38 -8 -52 -26z
m87 -16 c21 -21 13 -28 -33 -28 -25 0 -45 4 -45 8 0 15 24 32 45 32 12 0 26
-5 33 -12z m160 0 c21 -21 13 -28 -33 -28 -32 0 -45 4 -45 14 0 25 57 35 78
14z"/>
<path d="M5126 823 c-3 -10 -8 -36 -12 -58 -3 -22 -11 -46 -16 -52 -19 -24 88
-17 112 7 23 23 28 88 8 108 -19 19 -86 15 -92 -5z m78 -26 c17 -26 -12 -71
-48 -75 -27 -3 -28 -2 -21 28 4 18 9 40 10 49 2 9 4 17 4 19 3 10 46 -6 55
-21z"/>
<path d="M5970 815 c0 -22 -2 -24 -19 -14 -38 24 -80 -23 -67 -75 5 -22 12
-26 44 -26 l37 0 16 70 c13 57 13 70 2 70 -7 0 -13 -11 -13 -25z m-22 -58 c4
-30 -21 -48 -40 -29 -8 8 -8 18 0 38 15 31 36 27 40 -9z"/>
<path d="M6077 833 c-3 -5 -8 -28 -12 -53 -3 -25 -8 -52 -11 -61 -3 -13 4 -16
38 -15 35 1 45 6 57 28 12 21 13 31 3 53 -10 22 -17 26 -38 21 -22 -6 -25 -4
-19 14 6 19 -8 29 -18 13z m54 -92 c-16 -28 -41 -27 -41 2 0 33 20 51 38 33
11 -11 11 -18 3 -35z"/>
<path d="M5264 786 c-31 -49 -3 -95 51 -82 31 8 26 19 -10 23 -39 5 -34 18 8
21 40 3 48 20 21 46 -23 23 -51 20 -70 -8z m54 -14 c2 -7 -7 -12 -23 -12 -24
0 -26 2 -15 15 14 17 31 16 38 -3z"/>
<path d="M5382 798 c-20 -20 -13 -39 18 -49 17 -6 30 -15 30 -20 0 -13 -34
-11 -48 3 -17 17 -28 2 -12 -17 24 -28 80 -13 80 22 0 8 -14 20 -31 27 -37 15
-23 30 18 20 25 -7 27 -6 14 9 -16 20 -52 22 -69 5z"/>
<path d="M5489 798 c-1 -16 -6 -45 -14 -76 -4 -16 -2 -23 6 -20 13 4 40 94 31
103 -10 9 -22 5 -23 -7z"/>
<path d="M5546 794 c-40 -39 -25 -100 21 -91 15 3 22 0 20 -7 -2 -6 -19 -10
-36 -9 -41 1 -36 -21 6 -25 37 -4 47 8 67 83 16 63 15 75 -8 56 -10 -8 -16 -9
-21 -1 -9 15 -31 12 -49 -6z m52 -17 c14 -16 -11 -57 -34 -57 -17 0 -19 41 -2
58 15 15 23 15 36 -1z"/>
<path d="M5656 793 c-13 -43 -15 -94 -3 -90 7 2 13 15 15 29 4 31 38 66 52 52
5 -5 6 -24 1 -47 -5 -20 -5 -37 -1 -37 13 0 19 13 26 58 5 34 3 43 -11 48 -10
4 -26 2 -36 -5 -12 -7 -19 -7 -19 -1 0 17 -18 11 -24 -7z"/>
<path d="M5787 792 c-35 -39 -13 -97 34 -90 33 5 36 27 3 25 -15 -1 -29 4 -31
11 -3 8 7 12 31 12 28 0 36 4 36 18 0 41 -45 55 -73 24z m51 -20 c2 -7 -7 -12
-23 -12 -24 0 -26 2 -15 15 14 17 31 16 38 -3z"/>
<path d="M6186 745 c6 -56 5 -65 -10 -65 -9 0 -16 -4 -16 -10 0 -5 9 -10 19
-10 14 0 31 22 60 72 40 73 45 103 10 59 -10 -13 -19 -32 -19 -42 0 -10 -4
-19 -10 -19 -5 0 -10 18 -10 40 0 29 -4 40 -15 40 -13 0 -14 -10 -9 -65z"/>
</g>
</svg>
