<?xml version="1.0" encoding="utf-8"?>
<!-- Generator: Adobe Illustrator 24.3.0, SVG Export Plug-In . SVG Version: 6.00 Build 0)  -->
<svg version="1.1" id="Layer_1" xmlns="http://www.w3.org/2000/svg" xmlns:xlink="http://www.w3.org/1999/xlink" x="0px" y="0px"
	 width="512px" height="512px" viewBox="0 0 512 512" style="enable-background:new 0 0 512 512;" xml:space="preserve">
<style type="text/css">
	.st0{fill:#EFEFEF;}
	.st1{fill:#A5AFC1;}
	.st2{fill:#172641;stroke:#172641;stroke-width:3;stroke-miterlimit:10;}
	.st3{fill:#38B0E5;}
	.st4{opacity:0.1;fill:#172641;}
	.st5{fill:#D5DBE1;}
	.st6{fill:#172641;}
</style>
<g>
	<path class="st0" d="M15.1,217.3c52,83.5,44.4,167.8,69.5,208s100.8,110.4,285.9-4.9s141.5-245.8,114-290.1
		C355.5-76.9-76.9,69.4,15.1,217.3L15.1,217.3z"/>
	<g>
		<path class="st1" d="M123.4,484.4c-11.8,0-21.3-9.6-21.3-21.3s9.6-21.3,21.3-21.3s21.3,9.6,21.3,21.3S135.2,484.4,123.4,484.4z
			 M123.4,456c-3.9,0-7.1,3.2-7.1,7.1s3.2,7.1,7.1,7.1c3.9,0,7.1-3.2,7.1-7.1S127.3,456,123.4,456z"/>
		<path class="st1" d="M433.7,27.6h14.2V56h-14.2V27.6z"/>
		<path class="st1" d="M433.7,109.3h14.2v28.4h-14.2V109.3z"/>
		<path class="st1" d="M383.9,73.8h28.4V88h-28.4V73.8z"/>
		<path class="st1" d="M465.7,73.8h28.4V88h-28.4V73.8z"/>
	</g>
	<g>
		<g>
			<path class="st2" d="M256,58.3c-18.1,0-32.9,14.8-32.9,32.9c0,13.8,8.5,25.6,20.6,30.5V161h24.7v-39.4
				c12-4.9,20.6-16.7,20.6-30.5C288.9,73,274.1,58.3,256,58.3z M256,111.7c-11.4,0-20.6-9.2-20.6-20.6c0-11.4,9.2-20.6,20.6-20.6
				c11.4,0,20.6,9.2,20.6,20.6C276.6,102.5,267.4,111.7,256,111.7z"/>
			<path class="st2" d="M332.7,196.3l26.7-26.7c4.1,1.7,8.5,2.6,12.9,2.6c8.4,0,16.9-3.2,23.3-9.6c12.8-12.8,12.8-33.7,0-46.5
				c-12.8-12.8-33.7-12.8-46.5,0c-9.7,9.7-12.1,24.1-7,36.1l-26.7,26.7L332.7,196.3z M372.3,118.8c11.4,0,20.6,9.2,20.6,20.6
				c0,11.4-9.2,20.6-20.6,20.6c-11.4,0-20.6-9.2-20.6-20.6C351.7,128,360.9,118.8,372.3,118.8z"/>
			<path class="st2" d="M420.5,222.7c-13.8,0-25.6,8.5-30.5,20.6h-39.4v12.3v12.3H390c4.9,12,16.7,20.6,30.5,20.6
				c18.1,0,32.9-14.8,32.9-32.9S438.6,222.7,420.5,222.7z M420.5,276.2c-11.4,0-20.6-9.2-20.6-20.6c0-11.4,9.2-20.6,20.6-20.6
				c11.4,0,20.6,9.2,20.6,20.6C441,266.9,431.8,276.2,420.5,276.2z"/>
			<path class="st2" d="M359.3,341.7l-26.6-26.6l-8.6,8.6l-8.8,8.8l26.7,26.7c-5,11.9-2.6,26.2,7.1,36c6.4,6.4,14.8,9.6,23.3,9.6
				c8.4,0,16.9-3.2,23.3-9.6c12.8-12.8,12.8-33.7,0-46.5C385.8,338.9,371.3,336.5,359.3,341.7z M372.3,392.4
				c-11.4,0-20.6-9.2-20.6-20.6c0-11.4,9.2-20.6,20.6-20.6c11.4,0,20.6,9.2,20.6,20.6C392.8,383.2,383.6,392.4,372.3,392.4z"/>
			<path class="st2" d="M268.3,389.6v-39.4H256h-12.3v39.4c-12,4.9-20.6,16.7-20.6,30.5c0,18.1,14.8,32.9,32.9,32.9
				s32.9-14.8,32.9-32.9C288.9,406.3,280.4,394.5,268.3,389.6z M256,440.6c-11.4,0-20.6-9.2-20.6-20.6c0-11.4,9.2-20.6,20.6-20.6
				c11.4,0,20.6,9.2,20.6,20.6C276.6,431.4,267.4,440.6,256,440.6z"/>
			<path class="st2" d="M187.9,323.7l-8.8-8.8l-26.7,26.7c-12-5-26.3-2.7-36,7c-12.8,12.8-12.8,33.7,0,46.5
				c6.4,6.4,14.8,9.6,23.3,9.6c8.4,0,16.8-3.2,23.3-9.6c9.8-9.8,12.1-24.2,7-36.2l26.6-26.6L187.9,323.7z M139.7,392.4
				c-11.4,0-20.6-9.2-20.6-20.6c0-11.4,9.2-20.6,20.6-20.6s20.6,9.2,20.6,20.6C160.3,383.2,151.1,392.4,139.7,392.4z"/>
			<path class="st2" d="M122,267.9h39.4v-12.3v-12.3H122c-4.9-12-16.7-20.6-30.5-20.6c-18.1,0-32.9,14.8-32.9,32.9
				s14.8,32.9,32.9,32.9C105.3,288.5,117.1,280,122,267.9z M91.6,276.2c-11.4,0-20.6-9.2-20.6-20.6c0-11.4,9.2-20.6,20.6-20.6
				s20.6,9.2,20.6,20.6C112.1,266.9,102.9,276.2,91.6,276.2z"/>
			<path class="st2" d="M163,116.1c-12.8-12.8-33.7-12.8-46.5,0c-12.8,12.8-12.8,33.7,0,46.5c6.4,6.4,14.8,9.6,23.3,9.6
				c4.3,0,8.7-0.9,12.7-2.6l26.7,26.7l17.4-17.4L170,152.2C175.1,140.2,172.7,125.8,163,116.1z M119.2,139.3
				c0-11.4,9.2-20.6,20.6-20.6s20.6,9.2,20.6,20.6c0,11.4-9.2,20.6-20.6,20.6S119.2,150.7,119.2,139.3z"/>
		</g>
	</g>
	<g>
		<path class="st3" d="M208.3,299.3v-5.6c0-12.4,10-22.4,22.4-22.4h50.5c12.4,0,22.4,10,22.4,22.4v5.6H208.3z"/>
		<path class="st4" d="M253.2,271.3h-22.4c-12.4,0-22.4,10-22.4,22.4v5.6h22.4v-5.6C230.8,281.3,240.8,271.3,253.2,271.3z"/>
		<path class="st5" d="M258.8,225.2c0-6.7,3.3-12.5,8.4-16.1c-3.2-2.2-7-3.6-11.2-3.6c-10.8,0-19.6,8.8-19.6,19.6
			s8.8,19.6,19.6,19.6c4.2,0,8-1.3,11.2-3.6C262.1,237.7,258.8,231.8,258.8,225.2L258.8,225.2z"/>
		<path class="st6" d="M229.5,225.2c0,14.6,11.9,26.5,26.5,26.5c14.6,0,26.5-11.9,26.5-26.5s-11.9-26.5-26.5-26.5
			C241.4,198.7,229.5,210.6,229.5,225.2z M268.8,225.2c0,7.1-5.7,12.8-12.8,12.8c-7.1,0-12.8-5.7-12.8-12.8
			c0-7.1,5.7-12.8,12.8-12.8C263.1,212.4,268.8,218.1,268.8,225.2z"/>
		<path class="st6" d="M281.2,266h-50.5c-16.1,0-29.3,13.1-29.3,29.3v4h13.7v-4c0-8.6,7-15.6,15.6-15.6h50.5c8.6,0,15.6,7,15.6,15.6
			v4h13.7v-4C310.5,279.1,297.4,266,281.2,266z"/>
	</g>
</g>
</svg>
