<?xml version="1.0" encoding="utf-8"?>
<!-- Generator: Adobe Illustrator 24.3.0, SVG Export Plug-In . SVG Version: 6.00 Build 0)  -->
<svg version="1.1" id="Layer_1" xmlns="http://www.w3.org/2000/svg" xmlns:xlink="http://www.w3.org/1999/xlink" x="0px" y="0px"
	 width="512px" height="512px" viewBox="0 0 512 512" style="enable-background:new 0 0 512 512;" xml:space="preserve">
<style type="text/css">
	.st0{fill:#EFEFEF;}
	.st1{fill:#A5AFC1;}
	.st2{fill:#F3F3F1;}
	.st3{fill:#38B0E5;}
	.st4{opacity:0.1;}
	.st5{fill:#172641;}
	.st6{opacity:0.1;fill:#172641;}
</style>
<g>
	<g id="BG">
		<g>
			<path class="st0" d="M59.3,392.9c0-98.4-51-165.9-51-213.3s27.2-147,245.3-147s250.1,133.9,250.1,186.1
				C503.7,462.8,59.3,567.1,59.3,392.9z"/>
		</g>
	</g>
	<g id="effect">
		<g>
			<g>
				<path class="st1" d="M35.9,135.8L46,125.8l20.1,20.1L56,155.9L35.9,135.8z"/>
			</g>
			<g>
				<path class="st1" d="M33.4,203.7l20.1-20.1l10.1,10.1l-20.1,20.1L33.4,203.7z"/>
			</g>
			<g>
				<path class="st1" d="M91.2,145.9l20.1-20.1l10.1,10.1l-20.1,20.1L91.2,145.9z"/>
			</g>
		</g>
		<g>
			<path class="st1" d="M421.8,243.1c-11.8,0-21.3-9.6-21.3-21.3c0-11.8,9.6-21.3,21.3-21.3s21.3,9.6,21.3,21.3
				C443.2,233.5,433.6,243.1,421.8,243.1z M421.8,214.6c-3.9,0-7.1,3.2-7.1,7.1c0,3.9,3.2,7.1,7.1,7.1s7.1-3.2,7.1-7.1
				C428.9,217.8,425.7,214.6,421.8,214.6z"/>
		</g>
	</g>
	<g id="color">
		<g>
			<path class="st2" d="M227.6,314.2l-81.3,44.9l15.5-95.2L96,196.5l90.9-13.9L227.6,96l40.6,86.6l90.9,13.9l-65.8,67.4l15.5,95.2
				L227.6,314.2z"/>
		</g>
		<g>
			<circle class="st3" cx="334.2" cy="334.2" r="81.8"/>
		</g>
	</g>
	<g id="shadow" class="st4">
		<g>
			<g>
				<path class="st5" d="M181.4,339.7l12.4-75.7L128,196.5l90.9-13.9l24.6-52.5l-16-34.1l-40.6,86.6L96,196.5l65.8,67.4l-15.5,95.2
					L181.4,339.7z"/>
			</g>
		</g>
	</g>
	<g>
		<path class="st5" d="M339.6,323.6h-5.3v-17.8h24.9v-21.3h-35.6c-5.9,0-10.7,4.8-10.7,10.7v39.1c0,5.9,4.8,10.7,10.7,10.7h16
			c4.9,0,8.9,4,8.9,8.9c0,4.9-4,8.9-8.9,8.9h-16V384h16c16.7,0,30.2-13.6,30.2-30.2S356.2,323.6,339.6,323.6z"/>
	</g>
	<path class="st6" d="M277.3,334.2c0-42.3,30.8-77.3,71.1-84.1c-4.6-0.8-9.4-1.3-14.2-1.3c-47.1,0-85.3,38.2-85.3,85.3
		s38.2,85.3,85.3,85.3c4.8,0,9.6-0.5,14.2-1.3C308.1,411.5,277.3,376.5,277.3,334.2z"/>
	<path class="st5" d="M334.2,426.7c-51,0-92.4-41.5-92.4-92.4s41.5-92.4,92.4-92.4s92.4,41.5,92.4,92.4S385.2,426.7,334.2,426.7z
		 M334.2,256c-43.1,0-78.2,35.1-78.2,78.2s35.1,78.2,78.2,78.2s78.2-35.1,78.2-78.2S377.4,256,334.2,256z"/>
	<path class="st5" d="M335.4,208.4l12.4,12.1l17.5-17.9c2.3-2.3,3.1-5.7,2-8.8c-1-3.1-3.7-5.3-6.9-5.8l-86.3-13.2l-38.7-82.4
		c-1.5-3.3-5.1-4.5-7.8-4.5s-6.3,1.2-7.8,4.5L181,174.7l-86.3,13.2c-3.2,0.5-5.9,2.7-6.9,5.8c-1,3.1-0.3,6.5,2,8.8l62.7,64.3l-0.2,1
		l-14.7,89.9c-0.5,3.3,0.8,6.6,3.6,8.5c1.5,1,3.2,1.6,5,1.6c1.5,0,2.9-0.4,4.2-1.1l65.4-36.1l-8.4-15.2l-49.7,27.5l12.7-77.6
		c0.4-2.7-0.4-5.5-2.3-7.5l-54-55.3l74.2-11.3c2.9-0.4,5.3-2.2,6.5-4.9l32.8-69.9l32.8,69.9c1.2,2.6,3.7,4.4,6.5,4.9l74.2,11.3
		L335.4,208.4z"/>
</g>
</svg>
